<?xml version="1.0" encoding="UTF-8" standalone="no"?>
<svg
   xmlns:dc="http://purl.org/dc/elements/1.1/"
   xmlns:cc="http://creativecommons.org/ns#"
   xmlns:rdf="http://www.w3.org/1999/02/22-rdf-syntax-ns#"
   xmlns:svg="http://www.w3.org/2000/svg"
   xmlns="http://www.w3.org/2000/svg"
   viewBox="0 0 2560 1440"
   height="1440"
   width="2560"
   xml:space="preserve"
   id="svg2"
   version="1.1"><metadata
     id="metadata8"><rdf:RDF><cc:Work
         rdf:about=""><dc:format>image/svg+xml</dc:format><dc:type
           rdf:resource="http://purl.org/dc/dcmitype/StillImage" /></cc:Work></rdf:RDF></metadata><defs
     id="defs6"><clipPath
       id="clipPath20"
       clipPathUnits="userSpaceOnUse"><path
         id="path18"
         d="M 0,1080 H 1920 V 0 H 0 Z" /></clipPath><clipPath
       id="clipPath28"
       clipPathUnits="userSpaceOnUse"><path
         id="path26"
         d="M 20.9303,1056.07 H 1951.01 V -41.8329 H 20.9303 Z" /></clipPath></defs><g
     transform="matrix(1.3333333,0,0,-1.3333333,0,1440)"
     id="g10"><path
       id="path12"
       style="fill:#4d4d4d;fill-opacity:1;fill-rule:nonzero;stroke:none"
       d="M 0,0 H 1920 V 1080 H 0 Z" /><g
       id="g14"><g
         clip-path="url(#clipPath20)"
         id="g16"><g
           id="g22"><g
             id="g24" /><g
             id="g420"><g
               style="opacity:0.16999799"
               id="g418"
               clip-path="url(#clipPath28)"><g
                 id="g32"
                 transform="translate(205.5039,959.291)"><path
                   id="path30"
                   style="fill:#f5f5f5;fill-opacity:1;fill-rule:evenodd;stroke:none"
                   d="M 0,0 C -21.898,57.162 41.129,47.581 35.393,13.153 V 12.991 C 57.21,40.436 106.178,-0.325 49.21,-22.086 24.322,-31.829 14.707,-37.351 12.767,-38.325 12.767,-38.325 10.585,-27.932 0,0" /></g><g
                 id="g36"
                 transform="translate(1850.8691,777.5327)"><path
                   id="path34"
                   style="fill:#f5f5f5;fill-opacity:1;fill-rule:evenodd;stroke:none"
                   d="M 0,0 C -20.12,53.596 38.625,44.175 33.131,12.181 V 12.023 C 53.493,37.673 98.905,-0.648 45.736,-20.785 22.626,-29.554 13.495,-34.75 11.798,-35.562 11.798,-35.562 9.859,-25.818 0,0" /></g><g
                 id="g40"
                 transform="translate(495.147,634.7744)"><path
                   id="path38"
                   style="fill:#f5f5f5;fill-opacity:1;fill-rule:evenodd;stroke:none"
                   d="m 0,0 c -55.595,11.855 -16.242,56.512 7.762,34.265 l 0.074,0.162 C -2.507,65.281 54.14,83.307 42.1,27.445 36.929,2.922 36.449,-7.308 36.366,-9.256 36.366,-9.256 27.074,-5.847 0,0" /></g><g
                 id="g44"
                 transform="translate(586.3677,881.8101)"><path
                   id="path42"
                   style="fill:#f5f5f5;fill-opacity:1;fill-rule:evenodd;stroke:none"
                   d="M 0,0 C -47.512,21.761 -3.227,54.077 13.901,29.23 10.674,59.273 65.458,63.82 43.474,15.915 33.784,-4.709 31.029,-14.128 30.706,-15.915 30.706,-15.915 23.11,-10.718 0,0" /></g><g
                 id="g48"
                 transform="translate(720.9175,239.9932)"><path
                   id="path46"
                   style="fill:#f5f5f5;fill-opacity:1;fill-rule:evenodd;stroke:none"
                   d="M 0,0 C -33.776,66.259 43.796,63.008 41.207,20.462 63.837,56.514 128.477,13.32 62.381,-20.295 33.454,-35.07 22.623,-43.027 20.521,-44.657 20.521,-44.657 16.483,-32.31 0,0" /></g><g
                 id="g52"
                 transform="translate(221.626,834.1929)"><path
                   id="path50"
                   style="fill:#f5f5f5;fill-opacity:1;fill-rule:evenodd;stroke:none"
                   d="m 0,0 c -33.777,66.092 43.634,62.85 40.967,20.296 h 0.081 C 63.754,56.348 128.479,13.32 62.38,-20.295 33.452,-35.079 22.463,-43.036 20.523,-44.657 c 0,0 -4.12,12.339 -20.523,44.657" /></g><g
                 id="g56"
                 transform="translate(569.5005,502.041)"><path
                   id="path54"
                   style="fill:#f5f5f5;fill-opacity:1;fill-rule:evenodd;stroke:none"
                   d="m 0,0 c -33.619,66.255 43.796,63.008 41.049,20.623 l 0.158,-0.162 C 63.837,56.513 128.642,13.479 62.546,-20.3 33.454,-35.078 22.623,-43.035 20.521,-44.496 20.521,-44.496 16.483,-32.154 0,0" /></g><g
                 id="g60"
                 transform="translate(1690.501,355.041)"><path
                   id="path58"
                   style="fill:#f5f5f5;fill-opacity:1;fill-rule:evenodd;stroke:none"
                   d="m 0,0 c -33.619,66.256 43.796,63.008 41.049,20.623 l 0.157,-0.162 C 63.837,56.513 128.642,13.479 62.546,-20.3 33.453,-35.078 22.622,-43.035 20.521,-44.496 20.521,-44.496 16.482,-32.154 0,0" /></g><g
                 id="g64"
                 transform="translate(421.7705,751.2881)"><path
                   id="path62"
                   style="fill:#f5f5f5;fill-opacity:1;fill-rule:evenodd;stroke:none"
                   d="m 0,0 c -85.16,37.837 -7.107,95.974 23.921,52.452 h 0.166 C 17.782,105.718 114.749,114.974 76.77,29.555 60.122,-7.632 55.761,-24.035 54.95,-27.282 54.95,-27.282 41.538,-18.513 0,0" /></g><g
                 id="g68"
                 transform="translate(123.312,-3.5078)"><path
                   id="path66"
                   style="fill:#f5f5f5;fill-opacity:1;fill-rule:evenodd;stroke:none"
                   d="M 0,0 C -21.898,57.162 41.13,47.58 35.393,13.153 V 12.991 C 57.21,40.436 106.178,-0.325 49.21,-22.086 24.323,-31.829 14.707,-37.351 12.768,-38.325 12.768,-38.325 10.585,-27.932 0,0" /></g><g
                 id="g72"
                 transform="translate(667.9556,91.9756)"><path
                   id="path70"
                   style="fill:#f5f5f5;fill-opacity:1;fill-rule:evenodd;stroke:none"
                   d="m 0,0 c -55.596,11.854 -16.243,56.512 7.761,34.265 l 0.075,0.162 C -2.507,65.281 54.139,83.307 42.1,27.444 36.929,2.923 36.449,-7.308 36.366,-9.257 c 0,0 -9.292,3.41 -36.366,9.257" /></g><g
                 id="g76"
                 transform="translate(759.1758,339.0107)"><path
                   id="path74"
                   style="fill:#f5f5f5;fill-opacity:1;fill-rule:evenodd;stroke:none"
                   d="M 0,0 C -47.511,21.761 -3.227,54.077 13.901,29.23 10.674,59.273 65.458,63.821 43.474,15.915 33.784,-4.709 31.029,-14.128 30.707,-15.914 30.707,-15.914 23.11,-10.718 0,0" /></g><g
                 id="g80"
                 transform="translate(1080.5508,239.0166)"><path
                   id="path78"
                   style="fill:#f5f5f5;fill-opacity:1;fill-rule:evenodd;stroke:none"
                   d="M 0,0 C -23.922,46.769 30.706,44.657 28.927,14.615 V 14.453 C 44.93,39.948 90.662,9.418 43.961,-14.291 23.598,-24.684 15.837,-30.367 14.224,-31.504 c 0,0 -2.59,8.769 -14.224,31.504" /></g><g
                 id="g84"
                 transform="translate(963.7256,118.1943)"><path
                   id="path82"
                   style="fill:#f5f5f5;fill-opacity:1;fill-rule:evenodd;stroke:none"
                   d="M 0,0 C -33.775,66.259 43.797,63.008 41.207,20.462 63.837,56.514 128.477,13.32 62.381,-20.295 33.454,-35.07 22.623,-43.027 20.521,-44.657 20.521,-44.657 16.483,-32.31 0,0" /></g><g
                 id="g88"
                 transform="translate(425.4341,55.7041)"><path
                   id="path86"
                   style="fill:#f5f5f5;fill-opacity:1;fill-rule:evenodd;stroke:none"
                   d="m 0,0 c -33.777,66.092 43.634,62.85 40.967,20.296 h 0.081 C 63.754,56.348 128.479,13.32 62.381,-20.296 33.453,-35.079 22.463,-43.036 20.524,-44.657 20.524,-44.657 16.403,-32.318 0,0" /></g><g
                 id="g92"
                 transform="translate(814.3091,116.2422)"><path
                   id="path90"
                   style="fill:#f5f5f5;fill-opacity:1;fill-rule:evenodd;stroke:none"
                   d="m 0,0 c -33.619,66.256 43.796,63.008 41.049,20.623 l 0.158,-0.162 C 63.837,56.513 128.642,13.479 62.546,-20.3 33.453,-35.078 22.622,-43.035 20.521,-44.496 20.521,-44.496 16.482,-32.154 0,0" /></g><g
                 id="g96"
                 transform="translate(111.5791,148.5479)"><path
                   id="path94"
                   style="fill:#f5f5f5;fill-opacity:1;fill-rule:evenodd;stroke:none"
                   d="m 0,0 c -85.16,37.837 -7.108,95.974 23.921,52.452 h 0.165 C 17.781,105.718 114.749,114.974 76.77,29.555 60.122,-7.633 55.761,-24.035 54.95,-27.282 54.95,-27.282 41.537,-18.513 0,0" /></g><g
                 id="g100"
                 transform="translate(1755.5791,86.5479)"><path
                   id="path98"
                   style="fill:#f5f5f5;fill-opacity:1;fill-rule:evenodd;stroke:none"
                   d="m 0,0 c -85.16,37.837 -7.107,95.974 23.921,52.452 h 0.166 C 17.781,105.718 114.749,114.974 76.77,29.555 60.121,-7.633 55.761,-24.035 54.95,-27.282 54.95,-27.282 41.537,-18.513 0,0" /></g><g
                 id="g104"
                 transform="translate(1755.5791,927.5479)"><path
                   id="path102"
                   style="fill:#f5f5f5;fill-opacity:1;fill-rule:evenodd;stroke:none"
                   d="m 0,0 c -85.16,37.837 -7.107,95.974 23.921,52.452 h 0.166 C 17.781,105.717 114.749,114.974 76.77,29.555 60.121,-7.633 55.761,-24.035 54.95,-27.282 54.95,-27.282 41.537,-18.513 0,0" /></g><g
                 id="g108"
                 transform="translate(291.5791,55.5479)"><path
                   id="path106"
                   style="fill:#f5f5f5;fill-opacity:1;fill-rule:evenodd;stroke:none"
                   d="m 0,0 c -85.16,37.837 -7.108,95.974 23.921,52.452 h 0.165 C 17.781,105.718 114.749,114.974 76.77,29.555 60.122,-7.633 55.761,-24.035 54.95,-27.282 54.95,-27.282 41.537,-18.513 0,0" /></g><g
                 id="g112"
                 transform="translate(885.4507,257.0771)"><path
                   id="path110"
                   style="fill:#f5f5f5;fill-opacity:1;fill-rule:evenodd;stroke:none"
                   d="m 0,0 c -35.953,55.051 32.568,59.761 34.264,21.923 h 0.083 C 51.069,55.7 111.919,24.034 56.969,-12.017 32.891,-27.77 23.921,-36.052 22.225,-37.351 22.225,-37.351 17.616,-26.957 0,0" /></g><g
                 id="g116"
                 transform="translate(364.5415,503.5352)"><path
                   id="path114"
                   style="fill:#f5f5f5;fill-opacity:1;fill-rule:evenodd;stroke:none"
                   d="m 0,0 c -55.596,11.854 -16.243,56.512 7.761,34.265 l 0.074,0.162 C -2.507,65.281 54.139,83.307 42.1,27.444 36.928,2.923 36.448,-7.308 36.366,-9.257 c 0,0 -9.292,3.41 -36.366,9.257" /></g><g
                 id="g120"
                 transform="translate(547.7617,751.5708)"><path
                   id="path118"
                   style="fill:#f5f5f5;fill-opacity:1;fill-rule:evenodd;stroke:none"
                   d="M 0,0 C -47.512,21.761 -3.227,54.077 13.901,29.23 10.674,59.273 65.458,63.82 43.474,15.915 33.784,-4.709 31.029,-14.128 30.706,-15.915 30.706,-15.915 23.11,-10.718 0,0" /></g><g
                 id="g124"
                 transform="translate(1045.0732,369.5762)"><path
                   id="path122"
                   style="fill:#f5f5f5;fill-opacity:1;fill-rule:evenodd;stroke:none"
                   d="M 0,0 C -23.922,46.769 30.706,44.657 28.927,14.615 V 14.453 C 44.93,39.948 90.662,9.418 43.961,-14.291 23.598,-24.684 15.837,-30.367 14.224,-31.504 c 0,0 -2.591,8.769 -14.224,31.504" /></g><g
                 id="g128"
                 transform="translate(143.312,416.7539)"><path
                   id="path126"
                   style="fill:#f5f5f5;fill-opacity:1;fill-rule:evenodd;stroke:none"
                   d="M 0,0 C -33.776,66.259 43.796,63.008 41.206,20.462 63.836,56.514 128.476,13.32 62.38,-20.296 33.453,-35.07 22.622,-43.027 20.521,-44.657 20.521,-44.657 16.482,-32.31 0,0" /></g><g
                 id="g132"
                 transform="translate(109.02,769.9312)"><path
                   id="path130"
                   style="fill:#f5f5f5;fill-opacity:1;fill-rule:evenodd;stroke:none"
                   d="m 0,0 c -33.777,66.092 43.634,62.849 40.967,20.296 h 0.081 C 63.754,56.347 128.479,13.32 62.38,-20.296 33.453,-35.079 22.463,-43.036 20.524,-44.657 20.524,-44.657 16.403,-32.318 0,0" /></g><g
                 id="g136"
                 transform="translate(659.8945,662.8013)"><path
                   id="path134"
                   style="fill:#f5f5f5;fill-opacity:1;fill-rule:evenodd;stroke:none"
                   d="m 0,0 c -33.619,66.256 43.796,63.008 41.049,20.624 l 0.158,-0.163 c 22.63,36.052 87.435,-6.982 21.339,-40.76 -29.092,-14.778 -39.923,-22.735 -42.025,-24.197 0,0 -4.038,12.342 -20.521,44.496" /></g><g
                 id="g140"
                 transform="translate(757.8945,958.8013)"><path
                   id="path138"
                   style="fill:#f5f5f5;fill-opacity:1;fill-rule:evenodd;stroke:none"
                   d="m 0,0 c -33.619,66.256 43.796,63.008 41.049,20.624 l 0.158,-0.163 c 22.63,36.052 87.435,-6.982 21.339,-40.76 -29.092,-14.778 -39.923,-22.735 -42.025,-24.197 0,0 -4.038,12.342 -20.521,44.496" /></g><g
                 id="g144"
                 transform="translate(789.8247,498.7842)"><path
                   id="path142"
                   style="fill:#f5f5f5;fill-opacity:1;fill-rule:evenodd;stroke:none"
                   d="M 0,0 C -63.115,28.318 -6.11,70.672 16.883,38.442 L 17.13,38.439 C 12.135,77.378 83.256,83.764 56.222,21.13 44.323,-6.368 41.144,-18.101 40.664,-20.653 40.664,-20.653 30.425,-14.146 0,0" /></g><g
                 id="g148"
                 transform="translate(291.1646,620.0488)"><path
                   id="path146"
                   style="fill:#f5f5f5;fill-opacity:1;fill-rule:evenodd;stroke:none"
                   d="m 0,0 c -85.16,37.837 -7.107,95.974 23.921,52.452 h 0.166 C 17.782,105.717 114.749,114.974 76.77,29.555 60.122,-7.633 55.761,-24.035 54.95,-27.282 54.95,-27.282 41.538,-18.513 0,0" /></g><g
                 id="g152"
                 transform="translate(534.1646,134.5479)"><path
                   id="path150"
                   style="fill:#f5f5f5;fill-opacity:1;fill-rule:evenodd;stroke:none"
                   d="m 0,0 c -85.16,37.837 -7.107,95.974 23.921,52.452 h 0.166 C 17.782,105.718 114.749,114.974 76.77,29.555 60.122,-7.633 55.761,-24.035 54.95,-27.282 54.95,-27.282 41.538,-18.513 0,0" /></g><g
                 id="g156"
                 transform="translate(765.0361,801.0308)"><path
                   id="path154"
                   style="fill:#f5f5f5;fill-opacity:1;fill-rule:evenodd;stroke:none"
                   d="m 0,0 c -35.952,55.051 32.568,59.761 34.264,21.923 h 0.083 c 16.722,33.778 77.572,2.111 22.622,-33.94 C 32.891,-27.77 23.921,-36.051 22.225,-37.35 22.225,-37.35 17.616,-26.957 0,0" /></g><g
                 id="g160"
                 transform="translate(975.5039,959.291)"><path
                   id="path158"
                   style="fill:#f5f5f5;fill-opacity:1;fill-rule:evenodd;stroke:none"
                   d="M 0,0 C -21.898,57.162 41.13,47.581 35.393,13.153 V 12.991 C 57.21,40.436 106.178,-0.325 49.21,-22.086 24.322,-31.829 14.707,-37.351 12.768,-38.325 12.768,-38.325 10.585,-27.932 0,0" /></g><g
                 id="g164"
                 transform="translate(1265.1475,634.7744)"><path
                   id="path162"
                   style="fill:#f5f5f5;fill-opacity:1;fill-rule:evenodd;stroke:none"
                   d="m 0,0 c -55.596,11.855 -16.243,56.512 7.761,34.265 l 0.075,0.162 C -2.508,65.281 54.139,83.307 42.1,27.445 36.929,2.922 36.448,-7.308 36.365,-9.256 36.365,-9.256 27.073,-5.847 0,0" /></g><g
                 id="g168"
                 transform="translate(1356.3672,881.8101)"><path
                   id="path166"
                   style="fill:#f5f5f5;fill-opacity:1;fill-rule:evenodd;stroke:none"
                   d="M 0,0 C -47.511,21.761 -3.227,54.077 13.901,29.23 10.674,59.273 65.459,63.82 43.474,15.915 33.784,-4.709 31.029,-14.128 30.707,-15.915 30.707,-15.915 23.11,-10.718 0,0" /></g><g
                 id="g172"
                 transform="translate(1490.918,239.9932)"><path
                   id="path170"
                   style="fill:#f5f5f5;fill-opacity:1;fill-rule:evenodd;stroke:none"
                   d="M 0,0 C -33.776,66.259 43.796,63.008 41.206,20.462 63.837,56.514 128.477,13.32 62.38,-20.295 33.453,-35.07 22.622,-43.027 20.521,-44.657 20.521,-44.657 16.482,-32.31 0,0" /></g><g
                 id="g176"
                 transform="translate(991.626,834.1929)"><path
                   id="path174"
                   style="fill:#f5f5f5;fill-opacity:1;fill-rule:evenodd;stroke:none"
                   d="m 0,0 c -33.777,66.092 43.634,62.85 40.967,20.296 h 0.081 C 63.754,56.348 128.479,13.32 62.381,-20.295 33.452,-35.079 22.463,-43.036 20.523,-44.657 c 0,0 -4.12,12.339 -20.523,44.657" /></g><g
                 id="g180"
                 transform="translate(502.626,958.7041)"><path
                   id="path178"
                   style="fill:#f5f5f5;fill-opacity:1;fill-rule:evenodd;stroke:none"
                   d="m 0,0 c -33.777,66.092 43.634,62.85 40.967,20.296 h 0.081 C 63.754,56.348 128.479,13.32 62.38,-20.295 33.452,-35.079 22.463,-43.036 20.523,-44.657 c 0,0 -4.12,12.339 -20.523,44.657" /></g><g
                 id="g184"
                 transform="translate(1339.501,502.041)"><path
                   id="path182"
                   style="fill:#f5f5f5;fill-opacity:1;fill-rule:evenodd;stroke:none"
                   d="m 0,0 c -33.619,66.255 43.796,63.008 41.049,20.623 l 0.157,-0.162 C 63.837,56.513 128.642,13.479 62.546,-20.3 33.453,-35.078 22.622,-43.035 20.521,-44.496 20.521,-44.496 16.482,-32.154 0,0" /></g><g
                 id="g188"
                 transform="translate(1191.7705,751.2881)"><path
                   id="path186"
                   style="fill:#f5f5f5;fill-opacity:1;fill-rule:evenodd;stroke:none"
                   d="m 0,0 c -85.16,37.837 -7.107,95.974 23.921,52.452 h 0.166 C 17.781,105.718 114.749,114.974 76.77,29.555 60.122,-7.632 55.761,-24.035 54.95,-27.282 54.95,-27.282 41.537,-18.513 0,0" /></g><g
                 id="g192"
                 transform="translate(421.7705,298.5479)"><path
                   id="path190"
                   style="fill:#f5f5f5;fill-opacity:1;fill-rule:evenodd;stroke:none"
                   d="m 0,0 c -85.16,37.837 -7.107,95.974 23.921,52.452 h 0.166 C 17.782,105.718 114.749,114.974 76.77,29.555 60.122,-7.633 55.761,-24.035 54.95,-27.282 54.95,-27.282 41.538,-18.513 0,0" /></g><g
                 id="g196"
                 transform="translate(1237.6074,105.4922)"><path
                   id="path194"
                   style="fill:#f5f5f5;fill-opacity:1;fill-rule:evenodd;stroke:none"
                   d="M 0,0 C -21.898,57.162 41.129,47.58 35.393,13.153 V 12.991 C 57.21,40.436 106.178,-0.325 49.21,-22.086 24.322,-31.829 14.707,-37.351 12.768,-38.325 12.768,-38.325 10.585,-27.932 0,0" /></g><g
                 id="g200"
                 transform="translate(1437.9551,91.9756)"><path
                   id="path198"
                   style="fill:#f5f5f5;fill-opacity:1;fill-rule:evenodd;stroke:none"
                   d="m 0,0 c -55.595,11.854 -16.242,56.512 7.762,34.265 l 0.074,0.162 C -2.507,65.281 54.14,83.307 42.101,27.444 36.929,2.923 36.449,-7.308 36.366,-9.257 c 0,0 -9.292,3.41 -36.366,9.257" /></g><g
                 id="g204"
                 transform="translate(1529.1758,339.0107)"><path
                   id="path202"
                   style="fill:#f5f5f5;fill-opacity:1;fill-rule:evenodd;stroke:none"
                   d="M 0,0 C -47.512,21.761 -3.227,54.077 13.901,29.23 10.674,59.273 65.459,63.821 43.474,15.915 33.784,-4.709 31.029,-14.128 30.706,-15.914 30.706,-15.914 23.11,-10.718 0,0" /></g><g
                 id="g208"
                 transform="translate(1850.5508,239.0166)"><path
                   id="path206"
                   style="fill:#f5f5f5;fill-opacity:1;fill-rule:evenodd;stroke:none"
                   d="M 0,0 C -23.922,46.769 30.706,44.657 28.927,14.615 V 14.453 C 44.93,39.948 90.662,9.418 43.961,-14.291 23.598,-24.684 15.837,-30.367 14.224,-31.504 c 0,0 -2.59,8.769 -14.224,31.504" /></g><g
                 id="g212"
                 transform="translate(1787.7256,585.1948)"><path
                   id="path210"
                   style="fill:#f5f5f5;fill-opacity:1;fill-rule:evenodd;stroke:none"
                   d="m 0,0 c -33.775,66.258 43.797,63.007 41.207,20.462 22.63,36.052 87.27,-7.142 21.174,-40.758 -28.927,-14.775 -39.758,-22.732 -41.86,-24.361 0,0 -4.038,12.346 -20.521,44.657" /></g><g
                 id="g216"
                 transform="translate(1417.5791,568.5479)"><path
                   id="path214"
                   style="fill:#f5f5f5;fill-opacity:1;fill-rule:evenodd;stroke:none"
                   d="m 0,0 c -85.16,37.837 -7.107,95.974 23.921,52.452 h 0.166 C 17.781,105.717 114.749,114.974 76.77,29.555 60.121,-7.633 55.761,-24.035 54.95,-27.282 54.95,-27.282 41.537,-18.513 0,0" /></g><g
                 id="g220"
                 transform="translate(1591.7256,631.1948)"><path
                   id="path218"
                   style="fill:#f5f5f5;fill-opacity:1;fill-rule:evenodd;stroke:none"
                   d="m 0,0 c -33.775,66.258 43.797,63.007 41.207,20.462 22.63,36.052 87.27,-7.142 21.174,-40.758 -28.927,-14.775 -39.758,-22.732 -41.86,-24.361 0,0 -4.038,12.346 -20.521,44.657" /></g><g
                 id="g224"
                 transform="translate(1164.4346,291.3945)"><path
                   id="path222"
                   style="fill:#f5f5f5;fill-opacity:1;fill-rule:evenodd;stroke:none"
                   d="m 0,0 c -33.777,66.092 43.634,62.849 40.967,20.295 h 0.081 C 63.754,56.347 128.479,13.319 62.38,-20.296 33.452,-35.079 22.463,-43.036 20.523,-44.657 20.523,-44.657 16.402,-32.318 0,0" /></g><g
                 id="g228"
                 transform="translate(1584.3086,116.2422)"><path
                   id="path226"
                   style="fill:#f5f5f5;fill-opacity:1;fill-rule:evenodd;stroke:none"
                   d="m 0,0 c -33.618,66.256 43.797,63.008 41.05,20.623 l 0.157,-0.162 C 63.837,56.513 128.643,13.479 62.547,-20.3 33.454,-35.078 22.623,-43.035 20.521,-44.496 20.521,-44.496 16.483,-32.154 0,0" /></g><g
                 id="g232"
                 transform="translate(1346.5791,275.5479)"><path
                   id="path230"
                   style="fill:#f5f5f5;fill-opacity:1;fill-rule:evenodd;stroke:none"
                   d="m 0,0 c -85.16,37.837 -7.107,95.974 23.921,52.452 h 0.166 C 17.781,105.718 114.749,114.974 76.77,29.555 60.121,-7.633 55.761,-24.035 54.95,-27.282 54.95,-27.282 41.537,-18.513 0,0" /></g><g
                 id="g236"
                 transform="translate(1436.4502,32.3037)"><path
                   id="path234"
                   style="fill:#f5f5f5;fill-opacity:1;fill-rule:evenodd;stroke:none"
                   d="m 0,0 c -35.952,55.052 32.568,59.761 34.265,21.923 h 0.083 C 51.069,55.701 111.92,24.034 56.97,-12.017 32.891,-27.77 23.922,-36.052 22.226,-37.351 c 0,0 -4.61,10.394 -22.226,37.351" /></g><g
                 id="g240"
                 transform="translate(1134.541,503.5352)"><path
                   id="path238"
                   style="fill:#f5f5f5;fill-opacity:1;fill-rule:evenodd;stroke:none"
                   d="m 0,0 c -55.596,11.854 -16.242,56.512 7.762,34.265 l 0.074,0.162 C -2.507,65.281 54.14,83.307 42.101,27.444 36.929,2.923 36.449,-7.308 36.366,-9.257 c 0,0 -9.292,3.41 -36.366,9.257" /></g><g
                 id="g244"
                 transform="translate(1618.0732,722.5757)"><path
                   id="path242"
                   style="fill:#f5f5f5;fill-opacity:1;fill-rule:evenodd;stroke:none"
                   d="M 0,0 C -23.922,46.769 30.706,44.658 28.927,14.615 V 14.453 C 44.93,39.949 90.662,9.419 43.961,-14.29 23.598,-24.683 15.837,-30.367 14.224,-31.503 c 0,0 -2.591,8.768 -14.224,31.503" /></g><g
                 id="g248"
                 transform="translate(913.312,416.7539)"><path
                   id="path246"
                   style="fill:#f5f5f5;fill-opacity:1;fill-rule:evenodd;stroke:none"
                   d="M 0,0 C -33.776,66.259 43.796,63.008 41.206,20.462 63.836,56.514 128.476,13.32 62.38,-20.296 33.453,-35.07 22.622,-43.027 20.521,-44.657 20.521,-44.657 16.482,-32.31 0,0" /></g><g
                 id="g252"
                 transform="translate(879.02,769.9312)"><path
                   id="path250"
                   style="fill:#f5f5f5;fill-opacity:1;fill-rule:evenodd;stroke:none"
                   d="m 0,0 c -33.777,66.092 43.634,62.849 40.967,20.296 h 0.081 C 63.754,56.347 128.479,13.32 62.38,-20.296 33.453,-35.079 22.463,-43.036 20.524,-44.657 20.524,-44.657 16.403,-32.318 0,0" /></g><g
                 id="g256"
                 transform="translate(1527.8945,951.8013)"><path
                   id="path254"
                   style="fill:#f5f5f5;fill-opacity:1;fill-rule:evenodd;stroke:none"
                   d="m 0,0 c -33.618,66.256 43.797,63.008 41.05,20.624 l 0.157,-0.163 c 22.63,36.052 87.435,-6.982 21.339,-40.76 -29.093,-14.778 -39.924,-22.735 -42.025,-24.197 0,0 -4.039,12.342 -20.521,44.496" /></g><g
                 id="g260"
                 transform="translate(1559.8252,498.7842)"><path
                   id="path258"
                   style="fill:#f5f5f5;fill-opacity:1;fill-rule:evenodd;stroke:none"
                   d="M 0,0 C -63.115,28.318 -6.11,70.672 16.883,38.442 L 17.13,38.439 C 12.135,77.378 83.255,83.764 56.221,21.13 44.322,-6.368 41.144,-18.101 40.663,-20.653 40.663,-20.653 30.424,-14.146 0,0" /></g><g
                 id="g264"
                 transform="translate(931.1646,540.5479)"><path
                   id="path262"
                   style="fill:#f5f5f5;fill-opacity:1;fill-rule:evenodd;stroke:none"
                   d="m 0,0 c -85.16,37.837 -7.107,95.974 23.921,52.452 h 0.166 C 17.782,105.717 114.75,114.974 76.77,29.555 60.122,-7.633 55.761,-24.035 54.951,-27.282 54.951,-27.282 41.538,-18.513 0,0" /></g><g
                 id="g268"
                 transform="translate(1535.0361,801.0308)"><path
                   id="path266"
                   style="fill:#f5f5f5;fill-opacity:1;fill-rule:evenodd;stroke:none"
                   d="m 0,0 c -35.952,55.051 32.568,59.761 34.265,21.923 h 0.082 c 16.722,33.778 77.572,2.111 22.622,-33.94 C 32.891,-27.77 23.921,-36.051 22.225,-37.35 22.225,-37.35 17.616,-26.957 0,0" /></g><g
                 id="g272"
                 transform="translate(1939.293,709.3452)"><path
                   id="path270"
                   style="fill:#1d1d1b;fill-opacity:1;fill-rule:evenodd;stroke:none"
                   d="M 0,0 C -16.298,-37.104 -41.595,-3.153 -22.58,10.403 -45.668,7.765 -49.574,49.9 -12.902,33.436 3.396,26.186 10.356,24.221 11.714,23.88 11.714,23.88 7.979,17.915 0,0" /></g><g
                 id="g276"
                 transform="translate(299.5625,288.877)"><path
                   id="path274"
                   style="fill:#1d1d1b;fill-opacity:1;fill-rule:evenodd;stroke:none"
                   d="m 0,0 c -22.748,-50.155 -56.361,-3.327 -30.562,14.756 v 0.086 C -61.794,11.515 -66.723,69.177 -16.637,45.975 5.094,35.74 14.768,33.011 16.637,32.499 16.637,32.499 11.378,24.48 0,0" /></g><g
                 id="g280"
                 transform="translate(1036.375,674.2759)"><path
                   id="path278"
                   style="fill:#1d1d1b;fill-opacity:1;fill-rule:evenodd;stroke:none"
                   d="M 0,0 C -59.88,22.896 -7.875,65.679 14.999,36.811 9.184,73.142 75.465,82.869 52.035,23.082 41.771,-3.184 39.366,-14.696 38.749,-16.895 c 0,0 -9.603,5.582 -38.749,16.895" /></g><g
                 id="g284"
                 transform="translate(1040.375,516.2754)"><path
                   id="path282"
                   style="fill:#1d1d1b;fill-opacity:1;fill-rule:evenodd;stroke:none"
                   d="M 0,0 C -59.88,22.896 -7.875,65.68 14.999,36.812 9.184,73.142 75.465,82.87 52.035,23.082 41.771,-3.184 39.366,-14.695 38.749,-16.895 c 0,0 -9.603,5.582 -38.749,16.895" /></g><g
                 id="g288"
                 transform="translate(1141.375,896.2759)"><path
                   id="path286"
                   style="fill:#1d1d1b;fill-opacity:1;fill-rule:evenodd;stroke:none"
                   d="M 0,0 C -59.88,22.896 -7.875,65.679 14.999,36.811 9.184,73.142 75.465,82.869 52.035,23.082 41.771,-3.184 39.366,-14.696 38.749,-16.895 c 0,0 -9.603,5.582 -38.749,16.895" /></g><g
                 id="g292"
                 transform="translate(1924.6563,298.6572)"><path
                   id="path290"
                   style="fill:#1d1d1b;fill-opacity:1;fill-rule:evenodd;stroke:none"
                   d="M 0,0 C -16.298,-37.104 -41.595,-3.153 -22.58,10.402 -45.669,7.765 -49.574,49.899 -12.902,33.436 3.396,26.186 10.356,24.221 11.714,23.88 11.714,23.88 7.979,17.914 0,0" /></g><g
                 id="g296"
                 transform="translate(1178.0439,419.7031)"><path
                   id="path294"
                   style="fill:#1d1d1b;fill-opacity:1;fill-rule:evenodd;stroke:none"
                   d="m 0,0 c -52.37,17.042 -9.561,55.644 11.273,32.011 l 0.085,0.01 c -6.771,30.668 49.987,41.965 32.487,-10.385 -7.761,-22.733 -9.4,-32.651 -9.701,-34.565 0,0 -8.552,4.337 -34.144,12.929" /></g><g
                 id="g300"
                 transform="translate(762.0439,44.7031)"><path
                   id="path298"
                   style="fill:#1d1d1b;fill-opacity:1;fill-rule:evenodd;stroke:none"
                   d="m 0,0 c -52.37,17.042 -9.561,55.644 11.273,32.011 l 0.085,0.01 c -6.772,30.668 49.987,41.965 32.487,-10.385 -7.761,-22.733 -9.4,-32.651 -9.701,-34.565 0,0 -8.553,4.337 -34.144,12.929" /></g><g
                 id="g304"
                 transform="translate(1102.0439,44.7031)"><path
                   id="path302"
                   style="fill:#1d1d1b;fill-opacity:1;fill-rule:evenodd;stroke:none"
                   d="m 0,0 c -52.37,17.042 -9.561,55.644 11.273,32.011 l 0.085,0.01 c -6.771,30.668 49.987,41.965 32.487,-10.385 -7.761,-22.733 -9.4,-32.651 -9.701,-34.565 0,0 -8.552,4.337 -34.144,12.929" /></g><g
                 id="g308"
                 transform="translate(1262.0439,397.7031)"><path
                   id="path306"
                   style="fill:#1d1d1b;fill-opacity:1;fill-rule:evenodd;stroke:none"
                   d="m 0,0 c -52.37,17.042 -9.561,55.644 11.273,32.011 l 0.085,0.01 c -6.771,30.668 49.987,41.965 32.487,-10.385 -7.761,-22.733 -9.4,-32.651 -9.701,-34.565 0,0 -8.552,4.337 -34.144,12.929" /></g><g
                 id="g312"
                 transform="translate(585.0439,18.7031)"><path
                   id="path310"
                   style="fill:#1d1d1b;fill-opacity:1;fill-rule:evenodd;stroke:none"
                   d="m 0,0 c -52.37,17.042 -9.561,55.644 11.273,32.011 l 0.085,0.01 c -6.772,30.668 49.987,41.965 32.487,-10.385 -7.761,-22.733 -9.4,-32.651 -9.701,-34.565 0,0 -8.553,4.337 -34.144,12.929" /></g><g
                 id="g316"
                 transform="translate(1399.0439,712.7031)"><path
                   id="path314"
                   style="fill:#1d1d1b;fill-opacity:1;fill-rule:evenodd;stroke:none"
                   d="m 0,0 c -52.37,17.042 -9.561,55.644 11.273,32.011 l 0.085,0.01 C 4.587,62.69 61.345,73.986 43.845,21.636 c -7.761,-22.733 -9.4,-32.65 -9.701,-34.564 0,0 -8.552,4.336 -34.144,12.928" /></g><g
                 id="g320"
                 transform="translate(640.0439,759.7031)"><path
                   id="path318"
                   style="fill:#1d1d1b;fill-opacity:1;fill-rule:evenodd;stroke:none"
                   d="m 0,0 c -52.37,17.042 -9.561,55.644 11.273,32.011 l 0.085,0.01 C 4.586,62.69 61.345,73.986 43.845,21.636 c -7.761,-22.733 -9.4,-32.65 -9.701,-34.564 0,0 -8.553,4.336 -34.144,12.928" /></g><g
                 id="g324"
                 transform="translate(581.7134,242.2607)"><path
                   id="path322"
                   style="fill:#1d1d1b;fill-opacity:1;fill-rule:evenodd;stroke:none"
                   d="m 0,0 c -74.381,22.646 -14.954,78.837 14.961,45.788 l 0.06,0.062 C 4.731,89.314 84.622,106.897 61.136,32.386 50.911,-0.275 48.78,-14.391 48.566,-17.04 48.566,-17.04 36.289,-11.16 0,0" /></g><g
                 id="g328"
                 transform="translate(829.7134,387.2607)"><path
                   id="path326"
                   style="fill:#1d1d1b;fill-opacity:1;fill-rule:evenodd;stroke:none"
                   d="m 0,0 c -74.381,22.646 -14.954,78.837 14.961,45.788 l 0.06,0.062 C 4.731,89.314 84.622,106.897 61.136,32.386 50.911,-0.275 48.78,-14.391 48.566,-17.04 48.566,-17.04 36.289,-11.16 0,0" /></g><g
                 id="g332"
                 transform="translate(632.7134,373.2607)"><path
                   id="path330"
                   style="fill:#1d1d1b;fill-opacity:1;fill-rule:evenodd;stroke:none"
                   d="m 0,0 c -74.381,22.646 -14.954,78.837 14.961,45.788 l 0.06,0.062 C 4.731,89.314 84.622,106.897 61.136,32.386 50.911,-0.275 48.78,-14.391 48.566,-17.04 48.566,-17.04 36.289,-11.16 0,0" /></g><g
                 id="g336"
                 transform="translate(989.7139,192.2607)"><path
                   id="path334"
                   style="fill:#1d1d1b;fill-opacity:1;fill-rule:evenodd;stroke:none"
                   d="m 0,0 c -74.382,22.646 -14.955,78.837 14.96,45.788 l 0.06,0.062 C 4.73,89.314 84.621,106.897 61.136,32.386 50.91,-0.275 48.779,-14.391 48.566,-17.04 48.566,-17.04 36.288,-11.16 0,0" /></g><g
                 id="g340"
                 transform="translate(248.7134,162.2607)"><path
                   id="path338"
                   style="fill:#1d1d1b;fill-opacity:1;fill-rule:evenodd;stroke:none"
                   d="m 0,0 c -74.381,22.646 -14.954,78.837 14.961,45.788 l 0.06,0.062 C 4.731,89.314 84.622,106.897 61.136,32.386 50.911,-0.275 48.78,-14.391 48.566,-17.04 48.566,-17.04 36.289,-11.16 0,0" /></g><g
                 id="g344"
                 transform="translate(1842.9238,36.4365)"><path
                   id="path342"
                   style="fill:#1d1d1b;fill-opacity:1;fill-rule:evenodd;stroke:none"
                   d="M 0,0 C -59.76,-23.208 -49.913,43.41 -13.582,37.357 -42.273,60.391 0.34,112.081 23.09,52.031 33.105,25.671 39.048,15.521 40.066,13.478 40.066,13.478 29.201,11.172 0,0" /></g><g
                 id="g348"
                 transform="translate(1309.0957,147.1328)"><path
                   id="path346"
                   style="fill:#1d1d1b;fill-opacity:1;fill-rule:evenodd;stroke:none"
                   d="m 0,0 c -65.674,41.621 6.562,79.974 26.605,40.157 l 0.074,0.043 c 1.647,44.636 83.336,40.327 40.871,-25.248 -18.548,-28.764 -24.357,-41.803 -25.268,-44.3 0,0 -10.27,8.935 -42.282,29.348" /></g><g
                 id="g352"
                 transform="translate(818.0962,624.1328)"><path
                   id="path350"
                   style="fill:#1d1d1b;fill-opacity:1;fill-rule:evenodd;stroke:none"
                   d="m 0,0 c -65.674,41.621 6.562,79.974 26.605,40.157 l 0.074,0.044 c 1.646,44.635 83.335,40.326 40.87,-25.249 -18.547,-28.764 -24.357,-41.803 -25.267,-44.3 0,0 -10.271,8.935 -42.282,29.348" /></g><g
                 id="g356"
                 transform="translate(859.0962,862.1328)"><path
                   id="path354"
                   style="fill:#1d1d1b;fill-opacity:1;fill-rule:evenodd;stroke:none"
                   d="m 0,0 c -65.674,41.621 6.562,79.974 26.605,40.157 l 0.074,0.044 c 1.646,44.635 83.335,40.326 40.87,-25.249 -18.547,-28.764 -24.357,-41.803 -25.267,-44.3 0,0 -10.271,8.935 -42.282,29.348" /></g><g
                 id="g360"
                 transform="translate(1687.3955,464.5605)"><path
                   id="path358"
                   style="fill:#1d1d1b;fill-opacity:1;fill-rule:evenodd;stroke:none"
                   d="M 0,0 C -82.073,14.753 -26.199,81.308 9.798,50.373 L 10.004,50.25 C -6.354,94.815 75.902,123.146 60.654,41.68 54.077,5.926 53.626,-9.226 53.455,-12.071 53.455,-12.071 39.94,-7.21 0,0" /></g><g
                 id="g364"
                 transform="translate(1665.3955,209.5605)"><path
                   id="path362"
                   style="fill:#1d1d1b;fill-opacity:1;fill-rule:evenodd;stroke:none"
                   d="M 0,0 C -82.073,14.753 -26.199,81.308 9.798,50.373 L 10.004,50.25 C -6.354,94.815 75.902,123.146 60.654,41.68 54.077,5.926 53.626,-9.226 53.455,-12.071 53.455,-12.071 39.94,-7.21 0,0" /></g><g
                 id="g368"
                 transform="translate(1461.3955,400.5605)"><path
                   id="path366"
                   style="fill:#1d1d1b;fill-opacity:1;fill-rule:evenodd;stroke:none"
                   d="M 0,0 C -82.073,14.753 -26.199,81.308 9.798,50.373 L 10.004,50.25 C -6.354,94.815 75.902,123.146 60.654,41.68 54.077,5.926 53.626,-9.226 53.455,-12.071 53.455,-12.071 39.94,-7.21 0,0" /></g><g
                 id="g372"
                 transform="translate(1687.3955,796.561)"><path
                   id="path370"
                   style="fill:#1d1d1b;fill-opacity:1;fill-rule:evenodd;stroke:none"
                   d="M 0,0 C -82.073,14.752 -26.199,81.307 9.798,50.373 L 10.004,50.25 C -6.354,94.815 75.902,123.146 60.654,41.679 54.077,5.925 53.626,-9.226 53.455,-12.072 53.455,-12.072 39.94,-7.21 0,0" /></g><g
                 id="g376"
                 transform="translate(586.3955,584.561)"><path
                   id="path374"
                   style="fill:#1d1d1b;fill-opacity:1;fill-rule:evenodd;stroke:none"
                   d="M 0,0 C -82.074,14.752 -26.2,81.307 9.797,50.373 L 10.003,50.25 C -6.354,94.815 75.902,123.146 60.654,41.679 54.077,5.925 53.625,-9.226 53.455,-12.072 53.455,-12.072 39.94,-7.21 0,0" /></g><g
                 id="g380"
                 transform="translate(1836.3955,361.5605)"><path
                   id="path378"
                   style="fill:#1d1d1b;fill-opacity:1;fill-rule:evenodd;stroke:none"
                   d="M 0,0 C -82.073,14.753 -26.199,81.308 9.798,50.373 L 10.004,50.25 C -6.354,94.815 75.902,123.146 60.654,41.68 54.077,5.926 53.626,-9.226 53.455,-12.071 53.455,-12.071 39.94,-7.21 0,0" /></g><g
                 id="g384"
                 transform="translate(1146.3955,612.561)"><path
                   id="path382"
                   style="fill:#1d1d1b;fill-opacity:1;fill-rule:evenodd;stroke:none"
                   d="M 0,0 C -82.073,14.752 -26.199,81.307 9.798,50.373 L 10.004,50.25 C -6.354,94.815 75.902,123.146 60.654,41.679 54.077,5.925 53.626,-9.226 53.455,-12.072 53.455,-12.072 39.94,-7.21 0,0" /></g><g
                 id="g388"
                 transform="translate(677.3955,945.561)"><path
                   id="path386"
                   style="fill:#1d1d1b;fill-opacity:1;fill-rule:evenodd;stroke:none"
                   d="M 0,0 C -82.074,14.752 -26.2,81.307 9.797,50.373 L 10.003,50.25 C -6.354,94.815 75.902,123.146 60.654,41.679 54.077,5.925 53.625,-9.226 53.455,-12.072 53.455,-12.072 39.94,-7.21 0,0" /></g><g
                 id="g392"
                 transform="translate(90.3955,560.561)"><path
                   id="path390"
                   style="fill:#1d1d1b;fill-opacity:1;fill-rule:evenodd;stroke:none"
                   d="M 0,0 C -82.074,14.752 -26.2,81.307 9.797,50.373 L 10.003,50.25 C -6.354,94.815 75.902,123.146 60.654,41.679 54.077,5.925 53.625,-9.226 53.455,-12.072 53.455,-12.072 39.94,-7.21 0,0" /></g><g
                 id="g396"
                 transform="translate(1298.3955,962.561)"><path
                   id="path394"
                   style="fill:#1d1d1b;fill-opacity:1;fill-rule:evenodd;stroke:none"
                   d="M 0,0 C -82.073,14.752 -26.199,81.307 9.798,50.373 L 10.004,50.25 C -6.354,94.815 75.902,123.146 60.654,41.679 54.077,5.925 53.626,-9.226 53.455,-12.072 53.455,-12.072 39.94,-7.21 0,0" /></g><g
                 id="g400"
                 transform="translate(456.3955,453.5605)"><path
                   id="path398"
                   style="fill:#1d1d1b;fill-opacity:1;fill-rule:evenodd;stroke:none"
                   d="M 0,0 C -82.074,14.753 -26.2,81.308 9.797,50.373 L 10.003,50.25 C -6.354,94.815 75.902,123.146 60.654,41.68 54.077,5.926 53.625,-9.226 53.455,-12.071 53.455,-12.071 39.94,-7.21 0,0" /></g><g
                 id="g404"
                 transform="translate(235.3955,472.5605)"><path
                   id="path402"
                   style="fill:#1d1d1b;fill-opacity:1;fill-rule:evenodd;stroke:none"
                   d="M 0,0 C -82.074,14.753 -26.2,81.308 9.797,50.373 L 10.003,50.25 C -6.354,94.815 75.902,123.146 60.654,41.68 54.077,5.926 53.625,-9.226 53.455,-12.071 53.455,-12.071 39.94,-7.21 0,0" /></g><g
                 id="g408"
                 transform="translate(398.3955,892.561)"><path
                   id="path406"
                   style="fill:#1d1d1b;fill-opacity:1;fill-rule:evenodd;stroke:none"
                   d="M 0,0 C -82.074,14.752 -26.2,81.307 9.797,50.373 L 10.003,50.25 C -6.354,94.815 75.902,123.146 60.654,41.679 54.077,5.925 53.625,-9.226 53.455,-12.072 53.455,-12.072 39.94,-7.21 0,0" /></g><g
                 id="g412"
                 transform="translate(90.3955,268.5605)"><path
                   id="path410"
                   style="fill:#1d1d1b;fill-opacity:1;fill-rule:evenodd;stroke:none"
                   d="M 0,0 C -82.074,14.753 -26.2,81.308 9.797,50.373 L 10.003,50.25 C -6.354,94.815 75.902,123.146 60.654,41.68 54.077,5.926 53.625,-9.226 53.455,-12.071 53.455,-12.071 39.94,-7.21 0,0" /></g><g
                 id="g416"
                 transform="translate(63.3955,945.561)"><path
                   id="path414"
                   style="fill:#1d1d1b;fill-opacity:1;fill-rule:evenodd;stroke:none"
                   d="M 0,0 C -82.074,14.752 -26.2,81.307 9.797,50.373 L 10.003,50.25 C -6.354,94.815 75.902,123.146 60.654,41.679 54.077,5.925 53.625,-9.226 53.455,-12.072 53.455,-12.072 39.94,-7.21 0,0" /></g></g></g></g><g
           transform="translate(1857.0703,959)"
           id="g422"><path
             id="path424"
             style="fill:#4d4d4d;fill-opacity:1;fill-rule:nonzero;stroke:none"
             d="m 0,0 h -336.141 c -10.962,0 -19.929,8.968 -19.929,19.929 v 43.142 c 0,10.961 8.967,19.929 19.929,19.929 H 0 C 10.962,83 19.93,74.032 19.93,63.071 V 19.929 C 19.93,8.968 10.962,0 0,0" /></g></g></g></g></svg>