<?xml version="1.0" encoding="UTF-8" standalone="no"?>
<svg
   xmlns:dc="http://purl.org/dc/elements/1.1/"
   xmlns:cc="http://creativecommons.org/ns#"
   xmlns:rdf="http://www.w3.org/1999/02/22-rdf-syntax-ns#"
   xmlns:svg="http://www.w3.org/2000/svg"
   xmlns="http://www.w3.org/2000/svg"
   viewBox="0 0 1500 3248"
   height="3248"
   width="1500"
   xml:space="preserve"
   id="svg2"
   version="1.1"><metadata
     id="metadata8"><rdf:RDF><cc:Work
         rdf:about=""><dc:format>image/svg+xml</dc:format><dc:type
           rdf:resource="http://purl.org/dc/dcmitype/StillImage" /></cc:Work></rdf:RDF></metadata><defs
     id="defs6"><clipPath
       id="clipPath20"
       clipPathUnits="userSpaceOnUse"><path
         id="path18"
         d="M 0,2436 H 1125 V 0 H 0 Z" /></clipPath><clipPath
       id="clipPath28"
       clipPathUnits="userSpaceOnUse"><path
         id="path26"
         d="M -26.8503,2459.75 H 1151.85 V 4.07834 H -26.8503 Z" /></clipPath></defs><g
     transform="matrix(1.3333333,0,0,-1.3333333,0,3248)"
     id="g10"><path
       id="path12"
       style="fill:#4d4d4d;fill-opacity:1;fill-rule:nonzero;stroke:none"
       d="M 0,0 H 1125 V 2436 H 0 Z" /><g
       id="g14"><g
         clip-path="url(#clipPath20)"
         id="g16"><g
           id="g22"><g
             id="g24" /><g
             id="g656"><g
               style="opacity:0.16999799"
               id="g654"
               clip-path="url(#clipPath28)"><g
                 id="g32"
                 transform="translate(147.4893,2381.8594)"><path
                   id="path30"
                   style="fill:#f5f5f5;fill-opacity:1;fill-rule:evenodd;stroke:none"
                   d="m 0,0 c -21.379,55.807 40.154,46.452 34.554,12.841 v -0.158 c 21.3,26.794 69.107,-13 13.49,-34.245 -24.298,-9.512 -33.686,-14.903 -35.579,-15.855 0,0 -2.131,10.147 -12.465,37.417" /></g><g
                 id="g36"
                 transform="translate(430.2656,2065.0366)"><path
                   id="path34"
                   style="fill:#f5f5f5;fill-opacity:1;fill-rule:evenodd;stroke:none"
                   d="M 0,0 C -54.277,11.574 -15.857,55.172 7.577,33.453 L 7.65,33.611 C -2.448,63.733 52.856,81.332 41.102,26.794 36.053,2.853 35.584,-7.134 35.504,-9.037 35.504,-9.037 26.432,-5.708 0,0" /></g><g
                 id="g40"
                 transform="translate(519.3232,2306.2153)"><path
                   id="path38"
                   style="fill:#f5f5f5;fill-opacity:1;fill-rule:evenodd;stroke:none"
                   d="m 0,0 c -46.385,21.245 -3.15,52.794 13.571,28.537 -3.15,29.331 50.335,33.77 28.872,-13 -9.46,-20.135 -12.15,-29.33 -12.465,-31.075 0,0 -7.416,5.074 -29.978,15.538" /></g><g
                 id="g44"
                 transform="translate(650.6836,1679.6157)"><path
                   id="path42"
                   style="fill:#f5f5f5;fill-opacity:1;fill-rule:evenodd;stroke:none"
                   d="M 0,0 C -32.976,64.687 42.758,61.513 40.229,19.977 62.323,55.174 125.43,13.004 60.901,-19.815 32.66,-34.239 22.086,-42.008 20.034,-43.599 20.034,-43.599 16.092,-31.544 0,0" /></g><g
                 id="g48"
                 transform="translate(163.229,2259.7271)"><path
                   id="path46"
                   style="fill:#f5f5f5;fill-opacity:1;fill-rule:evenodd;stroke:none"
                   d="m 0,0 c -32.976,64.525 42.6,61.359 39.996,19.815 h 0.079 C 62.243,55.012 125.433,13.004 60.902,-19.814 32.66,-34.247 21.931,-42.016 20.038,-43.598 20.038,-43.598 16.015,-31.552 0,0" /></g><g
                 id="g52"
                 transform="translate(502.8564,1935.4497)"><path
                   id="path50"
                   style="fill:#f5f5f5;fill-opacity:1;fill-rule:evenodd;stroke:none"
                   d="m 0,0 c -32.822,64.685 42.758,61.514 40.076,20.134 l 0.153,-0.158 C 62.323,55.173 125.592,13.159 61.063,-19.818 32.66,-34.246 22.085,-42.014 20.034,-43.441 20.034,-43.441 16.092,-31.392 0,0" /></g><g
                 id="g56"
                 transform="translate(1028.1006,2205.8823)"><path
                   id="path54"
                   style="fill:#f5f5f5;fill-opacity:1;fill-rule:evenodd;stroke:none"
                   d="m 0,0 c -32.821,64.685 42.758,61.514 40.076,20.134 l 0.153,-0.158 C 62.323,55.173 125.592,13.159 61.063,-19.818 32.66,-34.246 22.086,-42.014 20.034,-43.441 20.034,-43.441 16.092,-31.392 0,0" /></g><g
                 id="g60"
                 transform="translate(358.6289,2178.7881)"><path
                   id="path58"
                   style="fill:#f5f5f5;fill-opacity:1;fill-rule:evenodd;stroke:none"
                   d="m 0,0 c -83.141,36.94 -6.939,93.698 23.354,51.208 h 0.162 c -6.156,52.003 88.512,61.04 51.433,-22.354 -16.253,-36.306 -20.51,-52.319 -21.302,-55.49 0,0 -13.095,8.562 -53.647,26.636" /></g><g
                 id="g64"
                 transform="translate(67.2466,1441.8872)"><path
                   id="path62"
                   style="fill:#f5f5f5;fill-opacity:1;fill-rule:evenodd;stroke:none"
                   d="M 0,0 C -21.379,55.807 40.154,46.453 34.554,12.842 V 12.684 C 55.854,39.477 103.66,-0.317 48.043,-21.562 23.746,-31.074 14.358,-36.465 12.464,-37.417 12.464,-37.417 10.334,-27.27 0,0" /></g><g
                 id="g68"
                 transform="translate(598.9766,1535.1069)"><path
                   id="path66"
                   style="fill:#f5f5f5;fill-opacity:1;fill-rule:evenodd;stroke:none"
                   d="M 0,0 C -54.277,11.574 -15.857,55.172 7.578,33.453 L 7.65,33.611 C -2.447,63.733 52.856,81.331 41.103,26.794 36.054,2.853 35.585,-7.134 35.504,-9.037 35.504,-9.037 26.433,-5.708 0,0" /></g><g
                 id="g72"
                 transform="translate(688.0342,1776.2856)"><path
                   id="path70"
                   style="fill:#f5f5f5;fill-opacity:1;fill-rule:evenodd;stroke:none"
                   d="m 0,0 c -46.385,21.245 -3.15,52.794 13.571,28.537 -3.15,29.331 50.336,33.77 28.872,-13 -9.46,-20.135 -12.149,-29.33 -12.464,-31.075 0,0 -7.417,5.074 -29.979,15.538" /></g><g
                 id="g76"
                 transform="translate(883.8076,1760.6699)"><path
                   id="path74"
                   style="fill:#f5f5f5;fill-opacity:1;fill-rule:evenodd;stroke:none"
                   d="M 0,0 C -23.354,45.66 29.979,43.599 28.242,14.269 V 14.11 C 43.865,39.001 88.514,9.195 42.92,-13.952 23.039,-24.098 15.462,-29.647 13.887,-30.757 c 0,0 -2.529,8.561 -13.887,30.757" /></g><g
                 id="g80"
                 transform="translate(887.7354,1560.7046)"><path
                   id="path78"
                   style="fill:#f5f5f5;fill-opacity:1;fill-rule:evenodd;stroke:none"
                   d="M 0,0 C -32.976,64.687 42.758,61.513 40.229,19.977 62.323,55.174 125.43,13.004 60.901,-19.815 32.66,-34.239 22.086,-42.008 20.033,-43.599 20.033,-43.599 16.092,-31.544 0,0" /></g><g
                 id="g84"
                 transform="translate(362.2056,1499.6953)"><path
                   id="path82"
                   style="fill:#f5f5f5;fill-opacity:1;fill-rule:evenodd;stroke:none"
                   d="m 0,0 c -32.976,64.525 42.6,61.359 39.996,19.815 h 0.079 c 22.168,35.197 85.358,-6.811 20.826,-39.629 -28.242,-14.433 -38.97,-22.201 -40.864,-23.784 0,0 -4.023,12.046 -20.037,43.598" /></g><g
                 id="g88"
                 transform="translate(741.8604,1558.7979)"><path
                   id="path86"
                   style="fill:#f5f5f5;fill-opacity:1;fill-rule:evenodd;stroke:none"
                   d="m 0,0 c -32.821,64.685 42.758,61.514 40.076,20.134 l 0.153,-0.158 C 62.323,55.173 125.592,13.159 61.063,-19.818 32.66,-34.246 22.086,-42.014 20.034,-43.441 20.034,-43.441 16.092,-31.392 0,0" /></g><g
                 id="g92"
                 transform="translate(55.7915,1590.3379)"><path
                   id="path90"
                   style="fill:#f5f5f5;fill-opacity:1;fill-rule:evenodd;stroke:none"
                   d="m 0,0 c -83.141,36.94 -6.939,93.698 23.354,51.208 h 0.162 c -6.156,52.003 88.512,61.04 51.433,-22.354 -16.253,-36.306 -20.51,-52.319 -21.302,-55.49 0,0 -13.095,8.562 -53.647,26.636" /></g><g
                 id="g96"
                 transform="translate(231.5239,1499.543)"><path
                   id="path94"
                   style="fill:#f5f5f5;fill-opacity:1;fill-rule:evenodd;stroke:none"
                   d="m 0,0 c -83.141,36.939 -6.939,93.698 23.354,51.208 h 0.162 c -6.156,52.003 88.512,61.04 51.433,-22.354 -16.253,-36.306 -20.51,-52.319 -21.302,-55.49 0,0 -13.095,8.562 -53.647,26.636" /></g><g
                 id="g100"
                 transform="translate(811.3154,1696.2939)"><path
                   id="path98"
                   style="fill:#f5f5f5;fill-opacity:1;fill-rule:evenodd;stroke:none"
                   d="m 0,0 c -35.1,53.746 31.796,58.344 33.452,21.403 h 0.08 c 16.326,32.977 75.734,2.061 22.086,-33.135 -23.508,-15.379 -32.264,-23.465 -33.92,-24.733 0,0 -4.5,10.147 -21.698,36.465" /></g><g
                 id="g104"
                 transform="translate(302.7563,1936.9087)"><path
                   id="path102"
                   style="fill:#f5f5f5;fill-opacity:1;fill-rule:evenodd;stroke:none"
                   d="M 0,0 C -54.277,11.574 -15.857,55.172 7.577,33.453 L 7.65,33.611 C -2.448,63.734 52.855,81.332 41.102,26.794 36.053,2.854 35.584,-7.134 35.503,-9.037 35.503,-9.037 26.432,-5.708 0,0" /></g><g
                 id="g108"
                 transform="translate(481.6328,2179.0635)"><path
                   id="path106"
                   style="fill:#f5f5f5;fill-opacity:1;fill-rule:evenodd;stroke:none"
                   d="m 0,0 c -46.385,21.245 -3.151,52.795 13.571,28.538 -3.15,29.33 50.336,33.77 28.872,-13 -9.46,-20.136 -12.15,-29.331 -12.465,-31.075 0,0 -7.416,5.073 -29.978,15.537" /></g><g
                 id="g112"
                 transform="translate(967.1533,1806.1255)"><path
                   id="path110"
                   style="fill:#f5f5f5;fill-opacity:1;fill-rule:evenodd;stroke:none"
                   d="M 0,0 C -23.354,45.66 29.978,43.599 28.241,14.269 V 14.11 C 43.864,39.001 88.513,9.195 42.919,-13.951 23.039,-24.098 15.462,-29.647 13.886,-30.757 c 0,0 -2.529,8.561 -13.886,30.757" /></g><g
                 id="g116"
                 transform="translate(86.772,1852.1855)"><path
                   id="path114"
                   style="fill:#f5f5f5;fill-opacity:1;fill-rule:evenodd;stroke:none"
                   d="M 0,0 C -32.975,64.688 42.758,61.513 40.229,19.977 62.323,55.174 125.43,13.004 60.901,-19.815 32.66,-34.239 22.086,-42.008 20.034,-43.599 20.034,-43.599 16.092,-31.544 0,0" /></g><g
                 id="g120"
                 transform="translate(53.293,2196.9888)"><path
                   id="path118"
                   style="fill:#f5f5f5;fill-opacity:1;fill-rule:evenodd;stroke:none"
                   d="m 0,0 c -32.976,64.525 42.6,61.359 39.996,19.814 h 0.079 C 62.243,55.012 125.433,13.004 60.902,-19.814 32.66,-34.247 21.931,-42.016 20.037,-43.599 20.037,-43.599 16.014,-31.552 0,0" /></g><g
                 id="g124"
                 transform="translate(591.1074,2092.3989)"><path
                   id="path122"
                   style="fill:#f5f5f5;fill-opacity:1;fill-rule:evenodd;stroke:none"
                   d="m 0,0 c -32.822,64.685 42.758,61.514 40.076,20.134 l 0.153,-0.158 C 62.323,55.173 125.592,13.159 61.063,-19.818 32.66,-34.246 22.086,-42.014 20.034,-43.441 20.034,-43.441 16.092,-31.392 0,0" /></g><g
                 id="g128"
                 transform="translate(686.7842,2381.3813)"><path
                   id="path126"
                   style="fill:#f5f5f5;fill-opacity:1;fill-rule:evenodd;stroke:none"
                   d="m 0,0 c -32.822,64.685 42.758,61.514 40.075,20.134 l 0.154,-0.158 C 62.323,55.173 125.592,13.159 61.063,-19.818 32.66,-34.246 22.085,-42.014 20.033,-43.441 20.033,-43.441 16.092,-31.392 0,0" /></g><g
                 id="g132"
                 transform="translate(717.957,1932.2705)"><path
                   id="path130"
                   style="fill:#f5f5f5;fill-opacity:1;fill-rule:evenodd;stroke:none"
                   d="m 0,0 c -61.619,27.646 -5.965,68.996 16.482,37.531 l 0.242,-0.002 c -4.876,38.015 64.557,44.249 38.165,-16.9 -11.618,-26.846 -14.721,-38.3 -15.19,-40.793 0,0 -9.996,6.352 -39.699,20.164" /></g><g
                 id="g136"
                 transform="translate(231.1191,2050.6602)"><path
                   id="path134"
                   style="fill:#f5f5f5;fill-opacity:1;fill-rule:evenodd;stroke:none"
                   d="m 0,0 c -83.141,36.94 -6.939,93.698 23.354,51.208 h 0.162 C 17.36,103.211 112.029,112.248 74.95,28.854 58.696,-7.452 54.439,-23.465 53.647,-26.635 53.647,-26.635 40.553,-18.074 0,0" /></g><g
                 id="g140"
                 transform="translate(468.3579,1576.6699)"><path
                   id="path138"
                   style="fill:#f5f5f5;fill-opacity:1;fill-rule:evenodd;stroke:none"
                   d="m 0,0 c -83.141,36.94 -6.939,93.698 23.354,51.208 h 0.162 C 17.36,103.211 112.029,112.248 74.95,28.854 58.696,-7.452 54.439,-23.465 53.647,-26.636 53.647,-26.636 40.553,-18.074 0,0" /></g><g
                 id="g144"
                 transform="translate(693.7559,2227.3516)"><path
                   id="path142"
                   style="fill:#f5f5f5;fill-opacity:1;fill-rule:evenodd;stroke:none"
                   d="m 0,0 c -35.1,53.746 31.796,58.344 33.452,21.403 h 0.08 c 16.326,32.977 75.734,2.061 22.086,-33.135 -23.507,-15.379 -32.264,-23.465 -33.92,-24.733 0,0 -4.5,10.147 -21.698,36.465" /></g><g
                 id="g148"
                 transform="translate(899.2334,2381.8594)"><path
                   id="path146"
                   style="fill:#f5f5f5;fill-opacity:1;fill-rule:evenodd;stroke:none"
                   d="m 0,0 c -21.379,55.807 40.154,46.452 34.554,12.841 v -0.158 c 21.3,26.794 69.106,-13 13.49,-34.245 -24.298,-9.512 -33.686,-14.903 -35.579,-15.855 0,0 -2.13,10.147 -12.465,37.417" /></g><g
                 id="g152"
                 transform="translate(914.9736,2259.7271)"><path
                   id="path150"
                   style="fill:#f5f5f5;fill-opacity:1;fill-rule:evenodd;stroke:none"
                   d="m 0,0 c -32.977,64.525 42.6,61.359 39.996,19.815 h 0.079 c 22.167,35.197 85.358,-6.811 20.826,-39.629 -28.242,-14.433 -38.97,-22.202 -40.864,-23.784 0,0 -4.023,12.046 -20.037,43.598" /></g><g
                 id="g156"
                 transform="translate(437.5669,2381.2866)"><path
                   id="path154"
                   style="fill:#f5f5f5;fill-opacity:1;fill-rule:evenodd;stroke:none"
                   d="m 0,0 c -32.976,64.525 42.6,61.359 39.996,19.814 h 0.079 C 62.243,55.011 125.433,13.004 60.902,-19.815 32.66,-34.248 21.931,-42.016 20.037,-43.599 20.037,-43.599 16.014,-31.552 0,0" /></g><g
                 id="g160"
                 transform="translate(358.6289,1736.7817)"><path
                   id="path158"
                   style="fill:#f5f5f5;fill-opacity:1;fill-rule:evenodd;stroke:none"
                   d="m 0,0 c -83.141,36.939 -6.939,93.698 23.354,51.208 h 0.162 c -6.156,52.003 88.512,61.04 51.433,-22.354 -16.253,-36.306 -20.51,-52.319 -21.302,-55.49 0,0 -13.095,8.562 -53.647,26.636" /></g><g
                 id="g164"
                 transform="translate(1054.5,1936.9087)"><path
                   id="path162"
                   style="fill:#f5f5f5;fill-opacity:1;fill-rule:evenodd;stroke:none"
                   d="M 0,0 C -54.277,11.574 -15.857,55.172 7.578,33.453 L 7.65,33.611 C -2.447,63.734 52.856,81.332 41.103,26.794 36.054,2.854 35.585,-7.134 35.504,-9.037 35.504,-9.037 26.433,-5.708 0,0" /></g><g
                 id="g168"
                 transform="translate(838.5156,1852.1855)"><path
                   id="path166"
                   style="fill:#f5f5f5;fill-opacity:1;fill-rule:evenodd;stroke:none"
                   d="M 0,0 C -32.975,64.688 42.759,61.513 40.229,19.977 62.324,55.174 125.431,13.004 60.902,-19.815 32.66,-34.239 22.086,-42.008 20.034,-43.599 20.034,-43.599 16.092,-31.544 0,0" /></g><g
                 id="g172"
                 transform="translate(805.0371,2196.9888)"><path
                   id="path170"
                   style="fill:#f5f5f5;fill-opacity:1;fill-rule:evenodd;stroke:none"
                   d="m 0,0 c -32.976,64.525 42.6,61.359 39.996,19.814 h 0.079 c 22.168,35.198 85.358,-6.81 20.826,-39.628 -28.242,-14.433 -38.97,-22.202 -40.864,-23.785 0,0 -4.022,12.047 -20.037,43.599" /></g><g
                 id="g176"
                 transform="translate(855.9453,1973.0439)"><path
                   id="path174"
                   style="fill:#f5f5f5;fill-opacity:1;fill-rule:evenodd;stroke:none"
                   d="m 0,0 c -83.141,36.94 -6.938,93.698 23.354,51.208 h 0.162 C 17.36,103.211 112.029,112.248 74.95,28.854 58.696,-7.452 54.439,-23.465 53.647,-26.635 53.647,-26.635 40.553,-18.074 0,0" /></g><g
                 id="g180"
                 transform="translate(239.3179,1727.3398)"><path
                   id="path178"
                   style="fill:#1d1d1b;fill-opacity:1;fill-rule:evenodd;stroke:none"
                   d="M 0,0 C -22.208,-48.966 -55.025,-3.248 -29.838,14.406 V 14.49 C -60.329,11.242 -65.141,67.537 -16.243,44.885 4.973,34.893 14.418,32.228 16.243,31.728 16.243,31.728 11.108,23.9 0,0" /></g><g
                 id="g184"
                 transform="translate(958.6611,2103.6011)"><path
                   id="path182"
                   style="fill:#1d1d1b;fill-opacity:1;fill-rule:evenodd;stroke:none"
                   d="M 0,0 C -58.46,22.354 -7.687,64.123 14.645,35.938 8.967,71.408 73.677,80.905 50.802,22.535 40.781,-3.108 38.433,-14.347 37.831,-16.494 c 0,0 -9.375,5.449 -37.831,16.494" /></g><g
                 id="g188"
                 transform="translate(962.5664,1949.3472)"><path
                   id="path186"
                   style="fill:#1d1d1b;fill-opacity:1;fill-rule:evenodd;stroke:none"
                   d="M 0,0 C -58.46,22.354 -7.687,64.123 14.645,35.938 8.967,71.408 73.677,80.905 50.802,22.535 40.781,-3.108 38.433,-14.348 37.831,-16.494 c 0,0 -9.375,5.449 -37.831,16.494" /></g><g
                 id="g192"
                 transform="translate(1061.1719,2320.3379)"><path
                   id="path190"
                   style="fill:#1d1d1b;fill-opacity:1;fill-rule:evenodd;stroke:none"
                   d="M 0,0 C -58.46,22.354 -7.687,64.122 14.645,35.938 8.967,71.408 73.677,80.904 50.802,22.535 40.781,-3.108 38.433,-14.348 37.831,-16.494 c 0,0 -9.375,5.449 -37.831,16.494" /></g><g
                 id="g196"
                 transform="translate(1096.9717,1855.064)"><path
                   id="path194"
                   style="fill:#1d1d1b;fill-opacity:1;fill-rule:evenodd;stroke:none"
                   d="m 0,0 c -51.128,16.638 -9.334,54.325 11.006,31.252 l 0.083,0.01 C 4.478,61.204 59.891,72.233 42.806,21.124 35.229,-1.07 33.629,-10.753 33.334,-12.622 c 0,0 -8.35,4.234 -33.334,12.622" /></g><g
                 id="g200"
                 transform="translate(690.834,1488.9551)"><path
                   id="path198"
                   style="fill:#1d1d1b;fill-opacity:1;fill-rule:evenodd;stroke:none"
                   d="m 0,0 c -51.128,16.638 -9.333,54.325 11.007,31.252 l 0.083,0.009 C 4.479,61.204 59.892,72.232 42.806,21.123 35.229,-1.07 33.629,-10.753 33.335,-12.622 c 0,0 -8.35,4.234 -33.335,12.622" /></g><g
                 id="g204"
                 transform="translate(1022.7734,1488.9551)"><path
                   id="path202"
                   style="fill:#1d1d1b;fill-opacity:1;fill-rule:evenodd;stroke:none"
                   d="m 0,0 c -51.128,16.638 -9.334,54.325 11.006,31.252 l 0.083,0.009 C 4.478,61.204 59.891,72.232 42.806,21.123 35.229,-1.07 33.629,-10.753 33.334,-12.622 33.334,-12.622 24.985,-8.388 0,0" /></g><g
                 id="g208"
                 transform="translate(518.0308,1463.5713)"><path
                   id="path206"
                   style="fill:#1d1d1b;fill-opacity:1;fill-rule:evenodd;stroke:none"
                   d="m 0,0 c -51.128,16.638 -9.334,54.325 11.006,31.252 l 0.083,0.009 C 4.478,61.204 59.891,72.233 42.806,21.123 35.229,-1.07 33.629,-10.753 33.334,-12.622 33.334,-12.622 24.985,-8.388 0,0" /></g><g
                 id="g212"
                 transform="translate(571.7266,2187.0029)"><path
                   id="path210"
                   style="fill:#1d1d1b;fill-opacity:1;fill-rule:evenodd;stroke:none"
                   d="m 0,0 c -51.128,16.638 -9.333,54.325 11.007,31.252 l 0.083,0.01 C 4.479,61.204 59.892,72.233 42.806,21.124 35.229,-1.07 33.629,-10.753 33.335,-12.622 c 0,0 -8.35,4.234 -33.335,12.622" /></g><g
                 id="g216"
                 transform="translate(514.7793,1681.8286)"><path
                   id="path214"
                   style="fill:#1d1d1b;fill-opacity:1;fill-rule:evenodd;stroke:none"
                   d="m 0,0 c -72.618,22.109 -14.6,76.968 14.606,44.703 l 0.059,0.06 c -10.046,42.434 67.95,59.6 45.022,-13.144 -9.983,-31.888 -12.063,-45.668 -12.271,-48.254 0,0 -11.988,5.74 -47.416,16.635" /></g><g
                 id="g220"
                 transform="translate(756.8994,1823.3906)"><path
                   id="path218"
                   style="fill:#1d1d1b;fill-opacity:1;fill-rule:evenodd;stroke:none"
                   d="m 0,0 c -72.617,22.109 -14.6,76.968 14.606,44.704 l 0.058,0.059 C 4.619,87.197 82.615,104.363 59.687,31.619 49.704,-0.269 47.624,-14.049 47.415,-16.635 c 0,0 -11.986,5.74 -47.415,16.635" /></g><g
                 id="g224"
                 transform="translate(564.5703,1809.7227)"><path
                   id="path222"
                   style="fill:#1d1d1b;fill-opacity:1;fill-rule:evenodd;stroke:none"
                   d="m 0,0 c -72.618,22.109 -14.6,76.968 14.606,44.704 l 0.058,0.059 C 4.619,87.197 82.615,104.363 59.687,31.619 49.703,-0.269 47.624,-14.049 47.415,-16.635 c 0,0 -11.986,5.74 -47.415,16.635" /></g><g
                 id="g228"
                 transform="translate(344.9048,1633.0142)"><path
                   id="path226"
                   style="fill:#1d1d1b;fill-opacity:1;fill-rule:evenodd;stroke:none"
                   d="m 0,0 c -72.618,22.109 -14.6,76.968 14.606,44.703 l 0.059,0.06 C 4.619,87.197 82.615,104.363 59.687,31.619 49.704,-0.269 47.624,-14.049 47.415,-16.636 47.415,-16.636 35.428,-10.895 0,0" /></g><g
                 id="g232"
                 transform="translate(913.1064,1633.0142)"><path
                   id="path230"
                   style="fill:#1d1d1b;fill-opacity:1;fill-rule:evenodd;stroke:none"
                   d="m 0,0 c -72.618,22.109 -14.6,76.968 14.605,44.703 l 0.059,0.06 C 4.619,87.197 82.615,104.363 59.687,31.619 49.703,-0.269 47.623,-14.049 47.415,-16.636 47.415,-16.636 35.428,-10.895 0,0" /></g><g
                 id="g236"
                 transform="translate(189.6743,1603.7251)"><path
                   id="path234"
                   style="fill:#1d1d1b;fill-opacity:1;fill-rule:evenodd;stroke:none"
                   d="m 0,0 c -72.618,22.109 -14.6,76.968 14.606,44.704 l 0.059,0.059 c -10.046,42.434 67.95,59.6 45.022,-13.144 -9.983,-31.888 -12.063,-45.668 -12.271,-48.254 0,0 -11.988,5.74 -47.416,16.635" /></g><g
                 id="g240"
                 transform="translate(745.5576,2054.647)"><path
                   id="path238"
                   style="fill:#1d1d1b;fill-opacity:1;fill-rule:evenodd;stroke:none"
                   d="m 0,0 c -64.117,40.635 6.406,78.078 25.975,39.206 l 0.072,0.042 c 1.607,43.577 81.359,39.371 39.901,-24.65 -18.108,-28.082 -23.779,-40.812 -24.669,-43.25 0,0 -10.027,8.723 -41.279,28.652" /></g><g
                 id="g244"
                 transform="translate(785.5859,2287.0044)"><path
                   id="path242"
                   style="fill:#1d1d1b;fill-opacity:1;fill-rule:evenodd;stroke:none"
                   d="m 0,0 c -64.117,40.635 6.406,78.078 25.974,39.206 l 0.072,0.042 c 1.607,43.577 81.36,39.37 39.901,-24.65 -18.107,-28.082 -23.779,-40.812 -24.668,-43.25 0,0 -10.027,8.723 -41.279,28.652" /></g><g
                 id="g248"
                 transform="translate(519.3506,2016.0137)"><path
                   id="path246"
                   style="fill:#1d1d1b;fill-opacity:1;fill-rule:evenodd;stroke:none"
                   d="M 0,0 C -80.128,14.402 -25.579,79.379 9.565,49.179 L 9.767,49.058 C -6.204,92.567 74.103,120.226 59.216,40.691 52.795,5.785 52.354,-9.007 52.188,-11.786 52.188,-11.786 38.993,-7.04 0,0" /></g><g
                 id="g252"
                 transform="translate(1066.0732,2043.3496)"><path
                   id="path250"
                   style="fill:#1d1d1b;fill-opacity:1;fill-rule:evenodd;stroke:none"
                   d="M 0,0 C -80.127,14.403 -25.578,79.379 9.565,49.179 L 9.767,49.058 C -6.204,92.567 74.104,120.226 59.216,40.691 52.795,5.785 52.354,-9.007 52.188,-11.785 52.188,-11.785 38.994,-7.039 0,0" /></g><g
                 id="g256"
                 transform="translate(1064.1211,1707.5059)"><path
                   id="path254"
                   style="fill:#1d1d1b;fill-opacity:1;fill-rule:evenodd;stroke:none"
                   d="m 0,0 c -80.128,14.402 -25.578,79.379 9.565,49.178 l 0.202,-0.12 C -6.204,92.566 74.103,120.226 59.216,40.691 52.795,5.785 52.354,-9.007 52.188,-11.786 52.188,-11.786 38.993,-7.04 0,0" /></g><g
                 id="g260"
                 transform="translate(608.1924,2368.4546)"><path
                   id="path258"
                   style="fill:#1d1d1b;fill-opacity:1;fill-rule:evenodd;stroke:none"
                   d="M 0,0 C -80.127,14.403 -25.578,79.379 9.565,49.179 L 9.768,49.058 C -6.203,92.567 74.104,120.226 59.217,40.691 52.796,5.785 52.354,-9.007 52.188,-11.785 52.188,-11.785 38.994,-7.039 0,0" /></g><g
                 id="g264"
                 transform="translate(35.1099,1992.5825)"><path
                   id="path262"
                   style="fill:#1d1d1b;fill-opacity:1;fill-rule:evenodd;stroke:none"
                   d="M 0,0 C -80.127,14.403 -25.578,79.379 9.565,49.179 L 9.767,49.058 C -6.204,92.567 74.103,120.226 59.216,40.691 52.795,5.785 52.354,-9.007 52.188,-11.786 52.188,-11.786 38.994,-7.039 0,0" /></g><g
                 id="g268"
                 transform="translate(392.4326,1888.1196)"><path
                   id="path266"
                   style="fill:#1d1d1b;fill-opacity:1;fill-rule:evenodd;stroke:none"
                   d="m 0,0 c -80.127,14.402 -25.578,79.379 9.565,49.178 l 0.202,-0.12 C -6.204,92.567 74.103,120.226 59.216,40.691 52.795,5.785 52.354,-9.007 52.188,-11.786 52.188,-11.786 38.994,-7.04 0,0" /></g><g
                 id="g272"
                 transform="translate(176.6724,1906.6689)"><path
                   id="path270"
                   style="fill:#1d1d1b;fill-opacity:1;fill-rule:evenodd;stroke:none"
                   d="M 0,0 C -80.127,14.403 -25.579,79.379 9.565,49.179 L 9.767,49.058 C -6.204,92.567 74.103,120.226 59.216,40.691 52.795,5.785 52.354,-9.007 52.188,-11.786 52.188,-11.786 38.994,-7.039 0,0" /></g><g
                 id="g276"
                 transform="translate(335.8076,2316.7114)"><path
                   id="path274"
                   style="fill:#1d1d1b;fill-opacity:1;fill-rule:evenodd;stroke:none"
                   d="m 0,0 c -80.127,14.402 -25.578,79.379 9.565,49.178 l 0.202,-0.12 C -6.204,92.567 74.103,120.226 59.216,40.691 52.795,5.785 52.354,-9.007 52.188,-11.786 52.188,-11.786 38.994,-7.04 0,0" /></g><g
                 id="g280"
                 transform="translate(35.1099,1707.5059)"><path
                   id="path278"
                   style="fill:#1d1d1b;fill-opacity:1;fill-rule:evenodd;stroke:none"
                   d="m 0,0 c -80.127,14.402 -25.578,79.379 9.565,49.178 l 0.202,-0.12 C -6.204,92.566 74.103,120.226 59.216,40.691 52.795,5.785 52.354,-9.007 52.188,-11.786 52.188,-11.786 38.994,-7.04 0,0" /></g><g
                 id="g284"
                 transform="translate(35.1099,2343.0713)"><path
                   id="path282"
                   style="fill:#1d1d1b;fill-opacity:1;fill-rule:evenodd;stroke:none"
                   d="m 0,0 c -80.127,14.402 -25.578,79.379 9.565,49.178 l 0.202,-0.12 C -6.204,92.567 74.103,120.226 59.216,40.691 52.795,5.785 52.354,-9.007 52.188,-11.786 52.188,-11.786 38.994,-7.04 0,0" /></g><g
                 id="g288"
                 transform="translate(156.2759,1378.2319)"><path
                   id="path286"
                   style="fill:#f5f5f5;fill-opacity:1;fill-rule:evenodd;stroke:none"
                   d="m 0,0 c -21.379,55.807 40.154,46.453 34.554,12.842 v -0.158 c 21.3,26.793 69.107,-13.001 13.49,-34.246 -24.298,-9.512 -33.686,-14.903 -35.579,-15.855 0,0 -2.131,10.147 -12.465,37.417" /></g><g
                 id="g292"
                 transform="translate(439.0522,1061.4092)"><path
                   id="path290"
                   style="fill:#f5f5f5;fill-opacity:1;fill-rule:evenodd;stroke:none"
                   d="M 0,0 C -54.277,11.574 -15.857,55.173 7.577,33.453 L 7.65,33.611 C -2.448,63.733 52.856,81.331 41.102,26.794 36.053,2.854 35.584,-7.134 35.504,-9.037 35.504,-9.037 26.432,-5.708 0,0" /></g><g
                 id="g296"
                 transform="translate(528.1099,1302.5879)"><path
                   id="path294"
                   style="fill:#f5f5f5;fill-opacity:1;fill-rule:evenodd;stroke:none"
                   d="m 0,0 c -46.385,21.245 -3.15,52.794 13.571,28.538 -3.15,29.33 50.336,33.77 28.872,-13 -9.46,-20.136 -12.15,-29.331 -12.465,-31.076 0,0 -7.416,5.074 -29.978,15.538" /></g><g
                 id="g300"
                 transform="translate(659.4697,675.9883)"><path
                   id="path298"
                   style="fill:#f5f5f5;fill-opacity:1;fill-rule:evenodd;stroke:none"
                   d="M 0,0 C -32.975,64.688 42.758,61.514 40.229,19.977 62.323,55.174 125.431,13.004 60.902,-19.814 32.66,-34.239 22.086,-42.008 20.034,-43.599 20.034,-43.599 16.092,-31.544 0,0" /></g><g
                 id="g304"
                 transform="translate(172.0156,1256.1001)"><path
                   id="path302"
                   style="fill:#f5f5f5;fill-opacity:1;fill-rule:evenodd;stroke:none"
                   d="m 0,0 c -32.976,64.525 42.6,61.359 39.996,19.814 h 0.079 C 62.243,55.011 125.433,13.004 60.902,-19.814 32.66,-34.248 21.931,-42.016 20.038,-43.598 20.038,-43.598 16.015,-31.552 0,0" /></g><g
                 id="g308"
                 transform="translate(511.6431,931.8223)"><path
                   id="path306"
                   style="fill:#f5f5f5;fill-opacity:1;fill-rule:evenodd;stroke:none"
                   d="m 0,0 c -32.822,64.686 42.758,61.515 40.076,20.135 l 0.153,-0.158 C 62.323,55.173 125.591,13.159 61.063,-19.817 32.66,-34.245 22.085,-42.014 20.034,-43.44 20.034,-43.44 16.092,-31.392 0,0" /></g><g
                 id="g312"
                 transform="translate(367.4155,1175.1611)"><path
                   id="path310"
                   style="fill:#f5f5f5;fill-opacity:1;fill-rule:evenodd;stroke:none"
                   d="m 0,0 c -83.141,36.939 -6.939,93.698 23.354,51.208 h 0.162 c -6.156,52.002 88.512,61.04 51.433,-22.354 -16.253,-36.306 -20.51,-52.319 -21.302,-55.49 0,0 -13.095,8.562 -53.647,26.636" /></g><g
                 id="g316"
                 transform="translate(76.0332,438.2598)"><path
                   id="path314"
                   style="fill:#f5f5f5;fill-opacity:1;fill-rule:evenodd;stroke:none"
                   d="M 0,0 C -21.379,55.808 40.154,46.453 34.554,12.842 V 12.684 C 55.854,39.478 103.66,-0.317 48.043,-21.562 23.746,-31.074 14.358,-36.465 12.464,-37.416 12.464,-37.416 10.334,-27.27 0,0" /></g><g
                 id="g320"
                 transform="translate(607.7637,531.4795)"><path
                   id="path318"
                   style="fill:#f5f5f5;fill-opacity:1;fill-rule:evenodd;stroke:none"
                   d="M 0,0 C -54.278,11.574 -15.857,55.173 7.577,33.453 L 7.65,33.611 C -2.448,63.733 52.855,81.331 41.102,26.794 36.053,2.854 35.584,-7.134 35.504,-9.037 35.504,-9.037 26.432,-5.708 0,0" /></g><g
                 id="g324"
                 transform="translate(696.8213,772.6582)"><path
                   id="path322"
                   style="fill:#f5f5f5;fill-opacity:1;fill-rule:evenodd;stroke:none"
                   d="m 0,0 c -46.385,21.245 -3.15,52.795 13.571,28.537 -3.15,29.331 50.335,33.771 28.871,-13 -9.459,-20.135 -12.149,-29.33 -12.463,-31.074 0,0 -7.417,5.073 -29.979,15.537" /></g><g
                 id="g328"
                 transform="translate(1010.5762,675.0342)"><path
                   id="path326"
                   style="fill:#f5f5f5;fill-opacity:1;fill-rule:evenodd;stroke:none"
                   d="M 0,0 C -23.354,45.66 29.979,43.6 28.241,14.269 V 14.11 C 43.864,39.002 88.513,9.195 42.92,-13.951 23.039,-24.099 15.462,-29.647 13.887,-30.757 c 0,0 -2.529,8.561 -13.887,30.757" /></g><g
                 id="g332"
                 transform="translate(896.5215,557.0771)"><path
                   id="path330"
                   style="fill:#f5f5f5;fill-opacity:1;fill-rule:evenodd;stroke:none"
                   d="M 0,0 C -32.975,64.688 42.758,61.514 40.229,19.977 62.323,55.174 125.431,13.004 60.901,-19.814 32.66,-34.239 22.086,-42.008 20.034,-43.599 20.034,-43.599 16.092,-31.544 0,0" /></g><g
                 id="g336"
                 transform="translate(370.9922,496.0684)"><path
                   id="path334"
                   style="fill:#f5f5f5;fill-opacity:1;fill-rule:evenodd;stroke:none"
                   d="m 0,0 c -32.976,64.525 42.6,61.359 39.996,19.814 h 0.079 c 22.168,35.198 85.358,-6.81 20.826,-39.628 -28.242,-14.433 -38.97,-22.202 -40.864,-23.785 0,0 -4.023,12.046 -20.037,43.599" /></g><g
                 id="g340"
                 transform="translate(750.6475,555.1709)"><path
                   id="path338"
                   style="fill:#f5f5f5;fill-opacity:1;fill-rule:evenodd;stroke:none"
                   d="m 0,0 c -32.822,64.685 42.758,61.514 40.075,20.134 l 0.154,-0.158 C 62.323,55.173 125.592,13.158 61.063,-19.818 32.66,-34.246 22.086,-42.015 20.033,-43.441 20.033,-43.441 16.092,-31.392 0,0" /></g><g
                 id="g344"
                 transform="translate(64.5781,586.7109)"><path
                   id="path342"
                   style="fill:#f5f5f5;fill-opacity:1;fill-rule:evenodd;stroke:none"
                   d="m 0,0 c -83.141,36.939 -6.939,93.698 23.354,51.208 h 0.162 c -6.156,52.003 88.512,61.04 51.433,-22.354 -16.253,-36.306 -20.51,-52.319 -21.302,-55.49 0,0 -13.095,8.562 -53.647,26.636" /></g><g
                 id="g348"
                 transform="translate(240.3105,495.916)"><path
                   id="path346"
                   style="fill:#f5f5f5;fill-opacity:1;fill-rule:evenodd;stroke:none"
                   d="m 0,0 c -83.141,36.939 -6.939,93.697 23.354,51.208 h 0.162 c -6.156,52.003 88.512,61.04 51.433,-22.354 -16.253,-36.306 -20.51,-52.32 -21.302,-55.49 0,0 -13.095,8.562 -53.647,26.636" /></g><g
                 id="g352"
                 transform="translate(820.1016,692.667)"><path
                   id="path350"
                   style="fill:#f5f5f5;fill-opacity:1;fill-rule:evenodd;stroke:none"
                   d="m 0,0 c -35.1,53.746 31.796,58.344 33.452,21.403 h 0.081 C 49.859,54.38 109.267,23.464 55.619,-11.732 32.111,-27.111 23.354,-35.197 21.698,-36.465 21.698,-36.465 17.199,-26.318 0,0" /></g><g
                 id="g356"
                 transform="translate(311.543,933.2812)"><path
                   id="path354"
                   style="fill:#f5f5f5;fill-opacity:1;fill-rule:evenodd;stroke:none"
                   d="M 0,0 C -54.277,11.574 -15.857,55.173 7.577,33.453 L 7.65,33.611 C -2.448,63.734 52.855,81.332 41.102,26.794 36.053,2.854 35.584,-7.134 35.503,-9.037 35.503,-9.037 26.432,-5.708 0,0" /></g><g
                 id="g360"
                 transform="translate(490.4194,1175.4365)"><path
                   id="path358"
                   style="fill:#f5f5f5;fill-opacity:1;fill-rule:evenodd;stroke:none"
                   d="m 0,0 c -46.385,21.245 -3.151,52.794 13.571,28.537 -3.15,29.331 50.336,33.77 28.872,-13 -9.46,-20.135 -12.15,-29.33 -12.465,-31.075 0,0 -7.416,5.074 -29.978,15.538" /></g><g
                 id="g364"
                 transform="translate(975.9395,802.498)"><path
                   id="path362"
                   style="fill:#f5f5f5;fill-opacity:1;fill-rule:evenodd;stroke:none"
                   d="M 0,0 C -23.354,45.66 29.979,43.6 28.241,14.269 V 14.11 C 43.865,39.002 88.514,9.195 42.92,-13.951 23.039,-24.098 15.462,-29.647 13.887,-30.757 c 0,0 -2.529,8.561 -13.887,30.757" /></g><g
                 id="g368"
                 transform="translate(95.5586,848.5576)"><path
                   id="path366"
                   style="fill:#f5f5f5;fill-opacity:1;fill-rule:evenodd;stroke:none"
                   d="M 0,0 C -32.975,64.688 42.758,61.514 40.229,19.978 62.323,55.175 125.43,13.005 60.901,-19.814 32.66,-34.238 22.086,-42.007 20.034,-43.598 20.034,-43.598 16.092,-31.544 0,0" /></g><g
                 id="g372"
                 transform="translate(62.0796,1193.3613)"><path
                   id="path370"
                   style="fill:#f5f5f5;fill-opacity:1;fill-rule:evenodd;stroke:none"
                   d="m 0,0 c -32.976,64.525 42.6,61.359 39.996,19.814 h 0.079 C 62.243,55.012 125.433,13.004 60.902,-19.814 32.66,-34.247 21.931,-42.016 20.037,-43.599 20.037,-43.599 16.014,-31.552 0,0" /></g><g
                 id="g376"
                 transform="translate(599.8936,1088.7715)"><path
                   id="path374"
                   style="fill:#f5f5f5;fill-opacity:1;fill-rule:evenodd;stroke:none"
                   d="m 0,0 c -32.821,64.686 42.758,61.515 40.076,20.135 l 0.153,-0.158 C 62.323,55.173 125.592,13.159 61.063,-19.817 32.66,-34.245 22.086,-42.014 20.034,-43.44 20.034,-43.44 16.092,-31.392 0,0" /></g><g
                 id="g380"
                 transform="translate(695.5703,1377.7539)"><path
                   id="path378"
                   style="fill:#f5f5f5;fill-opacity:1;fill-rule:evenodd;stroke:none"
                   d="m 0,0 c -32.821,64.685 42.758,61.514 40.076,20.134 l 0.153,-0.158 C 62.323,55.173 125.592,13.159 61.063,-19.818 32.66,-34.246 22.086,-42.014 20.034,-43.441 20.034,-43.441 16.092,-31.392 0,0" /></g><g
                 id="g384"
                 transform="translate(726.7432,928.6436)"><path
                   id="path382"
                   style="fill:#f5f5f5;fill-opacity:1;fill-rule:evenodd;stroke:none"
                   d="m 0,0 c -61.618,27.646 -5.965,68.996 16.482,37.531 l 0.243,-0.003 C 11.848,75.544 81.282,81.778 54.889,20.629 43.271,-6.218 40.169,-17.672 39.7,-20.164 c 0,0 -9.997,6.352 -39.7,20.164" /></g><g
                 id="g388"
                 transform="translate(239.9058,1047.0332)"><path
                   id="path386"
                   style="fill:#f5f5f5;fill-opacity:1;fill-rule:evenodd;stroke:none"
                   d="m 0,0 c -83.141,36.939 -6.939,93.698 23.354,51.208 h 0.162 C 17.36,103.211 112.029,112.248 74.95,28.854 58.696,-7.452 54.439,-23.465 53.647,-26.636 53.647,-26.636 40.553,-18.074 0,0" /></g><g
                 id="g392"
                 transform="translate(477.1445,573.043)"><path
                   id="path390"
                   style="fill:#f5f5f5;fill-opacity:1;fill-rule:evenodd;stroke:none"
                   d="m 0,0 c -83.141,36.939 -6.939,93.698 23.354,51.208 h 0.162 C 17.36,103.211 112.028,112.248 74.95,28.854 58.696,-7.452 54.439,-23.465 53.647,-26.636 53.647,-26.636 40.553,-18.074 0,0" /></g><g
                 id="g396"
                 transform="translate(1065.8486,714.9209)"><path
                   id="path394"
                   style="fill:#f5f5f5;fill-opacity:1;fill-rule:evenodd;stroke:none"
                   d="m 0,0 c -83.142,36.939 -6.939,93.697 23.354,51.208 h 0.162 c -6.157,52.003 88.512,61.039 51.433,-22.354 -16.253,-36.306 -20.511,-52.32 -21.303,-55.49 0,0 -13.094,8.562 -53.646,26.636" /></g><g
                 id="g400"
                 transform="translate(702.543,1223.7241)"><path
                   id="path398"
                   style="fill:#f5f5f5;fill-opacity:1;fill-rule:evenodd;stroke:none"
                   d="m 0,0 c -35.101,53.746 31.795,58.344 33.451,21.403 h 0.081 C 49.858,54.38 109.266,23.464 55.618,-11.732 32.11,-27.111 23.354,-35.197 21.697,-36.465 21.697,-36.465 17.198,-26.318 0,0" /></g><g
                 id="g404"
                 transform="translate(908.0205,1378.2319)"><path
                   id="path402"
                   style="fill:#f5f5f5;fill-opacity:1;fill-rule:evenodd;stroke:none"
                   d="M 0,0 C -21.379,55.807 40.154,46.453 34.554,12.842 V 12.684 C 55.854,39.477 103.66,-0.317 48.043,-21.562 23.746,-31.074 14.358,-36.465 12.465,-37.417 12.465,-37.417 10.334,-27.27 0,0" /></g><g
                 id="g408"
                 transform="translate(1024.3184,1230.5547)"><path
                   id="path406"
                   style="fill:#f5f5f5;fill-opacity:1;fill-rule:evenodd;stroke:none"
                   d="m 0,0 c -32.977,64.525 42.6,61.359 39.995,19.814 h 0.08 c 22.167,35.198 85.358,-6.81 20.826,-39.628 -28.242,-14.433 -38.97,-22.202 -40.864,-23.785 0,0 -4.023,12.047 -20.037,43.599" /></g><g
                 id="g412"
                 transform="translate(446.3535,1377.6592)"><path
                   id="path410"
                   style="fill:#f5f5f5;fill-opacity:1;fill-rule:evenodd;stroke:none"
                   d="m 0,0 c -32.976,64.525 42.6,61.359 39.996,19.814 h 0.079 C 62.243,55.012 125.433,13.004 60.902,-19.814 32.66,-34.247 21.931,-42.016 20.037,-43.599 20.037,-43.599 16.014,-31.552 0,0" /></g><g
                 id="g416"
                 transform="translate(367.4155,733.1543)"><path
                   id="path414"
                   style="fill:#f5f5f5;fill-opacity:1;fill-rule:evenodd;stroke:none"
                   d="m 0,0 c -83.141,36.939 -6.939,93.698 23.354,51.209 h 0.162 c -6.156,52.002 88.512,61.039 51.433,-22.355 -16.253,-36.306 -20.51,-52.319 -21.302,-55.49 0,0 -13.095,8.562 -53.647,26.636" /></g><g
                 id="g420"
                 transform="translate(1066.4395,177.96)"><path
                   id="path418"
                   style="fill:#f5f5f5;fill-opacity:1;fill-rule:evenodd;stroke:none"
                   d="m 0,0 c -83.141,36.94 -6.938,93.698 23.354,51.209 h 0.162 C 17.36,103.211 112.029,112.248 74.95,28.854 58.696,-7.451 54.439,-23.465 53.647,-26.635 53.647,-26.635 40.553,-18.074 0,0" /></g><g
                 id="g424"
                 transform="translate(1063.2871,933.2812)"><path
                   id="path422"
                   style="fill:#f5f5f5;fill-opacity:1;fill-rule:evenodd;stroke:none"
                   d="M 0,0 C -54.277,11.574 -15.857,55.173 7.577,33.453 L 7.65,33.611 C -2.448,63.734 52.855,81.332 41.102,26.794 36.053,2.854 35.584,-7.134 35.504,-9.037 35.504,-9.037 26.432,-5.708 0,0" /></g><g
                 id="g428"
                 transform="translate(847.3027,848.5576)"><path
                   id="path426"
                   style="fill:#f5f5f5;fill-opacity:1;fill-rule:evenodd;stroke:none"
                   d="M 0,0 C -32.976,64.688 42.758,61.514 40.229,19.978 62.323,55.175 125.431,13.005 60.901,-19.814 32.66,-34.238 22.086,-42.007 20.034,-43.598 20.034,-43.598 16.092,-31.544 0,0" /></g><g
                 id="g432"
                 transform="translate(813.8242,1193.3613)"><path
                   id="path430"
                   style="fill:#f5f5f5;fill-opacity:1;fill-rule:evenodd;stroke:none"
                   d="m 0,0 c -32.977,64.525 42.6,61.359 39.996,19.814 h 0.079 c 22.167,35.198 85.358,-6.81 20.826,-39.628 -28.242,-14.433 -38.97,-22.202 -40.864,-23.785 0,0 -4.023,12.047 -20.037,43.599" /></g><g
                 id="g436"
                 transform="translate(864.7324,969.417)"><path
                   id="path434"
                   style="fill:#f5f5f5;fill-opacity:1;fill-rule:evenodd;stroke:none"
                   d="m 0,0 c -83.141,36.939 -6.939,93.698 23.354,51.208 h 0.162 c -6.156,52.003 88.512,61.04 51.433,-22.354 -16.253,-36.306 -20.511,-52.319 -21.302,-55.49 0,0 -13.094,8.562 -53.647,26.636" /></g><g
                 id="g440"
                 transform="translate(248.1045,723.7129)"><path
                   id="path438"
                   style="fill:#1d1d1b;fill-opacity:1;fill-rule:evenodd;stroke:none"
                   d="m 0,0 c -22.208,-48.967 -55.025,-3.248 -29.838,14.406 v 0.083 C -60.329,11.241 -65.141,67.536 -16.243,44.885 4.973,34.893 14.418,32.228 16.243,31.728 16.243,31.728 11.108,23.899 0,0" /></g><g
                 id="g444"
                 transform="translate(967.4482,1099.9736)"><path
                   id="path442"
                   style="fill:#1d1d1b;fill-opacity:1;fill-rule:evenodd;stroke:none"
                   d="M 0,0 C -58.46,22.354 -7.688,64.123 14.644,35.938 8.966,71.408 73.676,80.905 50.801,22.535 40.781,-3.107 38.433,-14.348 37.831,-16.494 c 0,0 -9.376,5.449 -37.831,16.494" /></g><g
                 id="g448"
                 transform="translate(971.3535,945.7197)"><path
                   id="path446"
                   style="fill:#1d1d1b;fill-opacity:1;fill-rule:evenodd;stroke:none"
                   d="M 0,0 C -58.46,22.354 -7.688,64.123 14.644,35.938 8.966,71.408 73.676,80.905 50.801,22.535 40.78,-3.107 38.433,-14.348 37.831,-16.494 c 0,0 -9.376,5.449 -37.831,16.494" /></g><g
                 id="g452"
                 transform="translate(813.1943,1431.9131)"><path
                   id="path450"
                   style="fill:#1d1d1b;fill-opacity:1;fill-rule:evenodd;stroke:none"
                   d="M 0,0 C -58.46,22.354 -7.688,64.122 14.644,35.938 8.966,71.408 73.676,80.904 50.801,22.535 40.78,-3.108 38.433,-14.348 37.831,-16.495 c 0,0 -9.376,5.45 -37.831,16.495" /></g><g
                 id="g456"
                 transform="translate(1105.7578,851.4365)"><path
                   id="path454"
                   style="fill:#1d1d1b;fill-opacity:1;fill-rule:evenodd;stroke:none"
                   d="m 0,0 c -51.128,16.639 -9.334,54.325 11.007,31.252 l 0.083,0.01 C 4.479,61.204 59.892,72.232 42.806,21.123 35.229,-1.07 33.629,-10.753 33.335,-12.621 c 0,0 -8.35,4.233 -33.335,12.621" /></g><g
                 id="g460"
                 transform="translate(699.6211,485.3281)"><path
                   id="path458"
                   style="fill:#1d1d1b;fill-opacity:1;fill-rule:evenodd;stroke:none"
                   d="m 0,0 c -51.128,16.638 -9.334,54.324 11.006,31.252 l 0.083,0.009 C 4.478,61.203 59.891,72.232 42.806,21.123 35.229,-1.07 33.629,-10.753 33.334,-12.622 c 0,0 -8.35,4.233 -33.334,12.622" /></g><g
                 id="g464"
                 transform="translate(1031.5596,485.3281)"><path
                   id="path462"
                   style="fill:#1d1d1b;fill-opacity:1;fill-rule:evenodd;stroke:none"
                   d="m 0,0 c -51.128,16.638 -9.333,54.324 11.007,31.252 l 0.083,0.009 C 4.479,61.203 59.892,72.232 42.806,21.123 35.229,-1.07 33.629,-10.753 33.335,-12.622 c 0,0 -8.35,4.233 -33.335,12.622" /></g><g
                 id="g468"
                 transform="translate(526.8174,459.9443)"><path
                   id="path466"
                   style="fill:#1d1d1b;fill-opacity:1;fill-rule:evenodd;stroke:none"
                   d="m 0,0 c -51.128,16.638 -9.334,54.324 11.006,31.252 l 0.083,0.009 C 4.478,61.203 59.891,72.232 42.806,21.123 35.229,-1.07 33.629,-10.753 33.334,-12.622 33.334,-12.622 24.985,-8.388 0,0" /></g><g
                 id="g472"
                 transform="translate(580.5137,1183.376)"><path
                   id="path470"
                   style="fill:#1d1d1b;fill-opacity:1;fill-rule:evenodd;stroke:none"
                   d="m 0,0 c -51.128,16.638 -9.334,54.325 11.006,31.252 l 0.083,0.009 C 4.478,61.204 59.891,72.232 42.806,21.123 35.229,-1.07 33.629,-10.753 33.334,-12.622 c 0,0 -8.35,4.234 -33.334,12.622" /></g><g
                 id="g476"
                 transform="translate(523.5659,678.2012)"><path
                   id="path474"
                   style="fill:#1d1d1b;fill-opacity:1;fill-rule:evenodd;stroke:none"
                   d="m 0,0 c -72.618,22.109 -14.6,76.968 14.606,44.703 l 0.059,0.061 C 4.619,87.197 82.616,104.363 59.686,31.619 49.704,-0.269 47.624,-14.049 47.416,-16.636 47.416,-16.636 35.428,-10.895 0,0" /></g><g
                 id="g480"
                 transform="translate(765.6865,819.7637)"><path
                   id="path478"
                   style="fill:#1d1d1b;fill-opacity:1;fill-rule:evenodd;stroke:none"
                   d="m 0,0 c -72.618,22.109 -14.6,76.968 14.605,44.703 l 0.059,0.06 C 4.619,87.197 82.615,104.363 59.687,31.618 49.703,-0.269 47.623,-14.049 47.415,-16.636 47.415,-16.636 35.428,-10.895 0,0" /></g><g
                 id="g484"
                 transform="translate(573.3574,806.0957)"><path
                   id="path482"
                   style="fill:#1d1d1b;fill-opacity:1;fill-rule:evenodd;stroke:none"
                   d="m 0,0 c -72.618,22.109 -14.6,76.968 14.605,44.703 l 0.059,0.06 C 4.618,87.197 82.614,104.362 59.686,31.618 49.703,-0.269 47.623,-14.049 47.415,-16.636 c 0,0 -11.987,5.74 -47.415,16.636" /></g><g
                 id="g488"
                 transform="translate(1025.3799,1343.0557)"><path
                   id="path486"
                   style="fill:#1d1d1b;fill-opacity:1;fill-rule:evenodd;stroke:none"
                   d="m 0,0 c -72.618,22.109 -14.6,76.968 14.605,44.703 l 0.059,0.06 C 4.619,87.197 82.615,104.363 59.687,31.619 49.703,-0.269 47.623,-14.049 47.415,-16.636 47.415,-16.636 35.428,-10.895 0,0" /></g><g
                 id="g492"
                 transform="translate(921.8926,629.3867)"><path
                   id="path490"
                   style="fill:#1d1d1b;fill-opacity:1;fill-rule:evenodd;stroke:none"
                   d="m 0,0 c -72.617,22.109 -14.6,76.968 14.606,44.703 l 0.059,0.061 C 4.619,87.197 82.615,104.363 59.687,31.619 49.704,-0.269 47.624,-14.049 47.415,-16.636 47.415,-16.636 35.429,-10.895 0,0" /></g><g
                 id="g496"
                 transform="translate(198.4609,600.0977)"><path
                   id="path494"
                   style="fill:#1d1d1b;fill-opacity:1;fill-rule:evenodd;stroke:none"
                   d="m 0,0 c -72.618,22.109 -14.6,76.968 14.606,44.704 l 0.059,0.06 C 4.619,87.197 82.615,104.363 59.687,31.619 49.704,-0.269 47.624,-14.049 47.416,-16.635 c 0,0 -11.988,5.74 -47.416,16.635" /></g><g
                 id="g500"
                 transform="translate(754.3447,1051.0195)"><path
                   id="path498"
                   style="fill:#1d1d1b;fill-opacity:1;fill-rule:evenodd;stroke:none"
                   d="m 0,0 c -64.117,40.635 6.406,78.078 25.974,39.206 l 0.072,0.042 c 1.607,43.577 81.359,39.37 39.901,-24.65 C 47.84,-13.484 42.168,-26.214 41.279,-28.651 41.279,-28.651 31.252,-19.929 0,0" /></g><g
                 id="g504"
                 transform="translate(794.3721,1283.377)"><path
                   id="path502"
                   style="fill:#1d1d1b;fill-opacity:1;fill-rule:evenodd;stroke:none"
                   d="m 0,0 c -64.117,40.635 6.406,78.078 25.975,39.206 l 0.072,0.042 c 1.607,43.577 81.359,39.371 39.901,-24.65 -18.107,-28.082 -23.779,-40.812 -24.669,-43.25 0,0 -10.027,8.723 -41.279,28.652" /></g><g
                 id="g508"
                 transform="translate(528.1372,1012.3867)"><path
                   id="path506"
                   style="fill:#1d1d1b;fill-opacity:1;fill-rule:evenodd;stroke:none"
                   d="m 0,0 c -80.128,14.402 -25.579,79.379 9.565,49.178 l 0.202,-0.12 C -6.204,92.566 74.103,120.226 59.215,40.69 52.794,5.785 52.354,-9.008 52.188,-11.786 52.188,-11.786 38.994,-7.04 0,0" /></g><g
                 id="g512"
                 transform="translate(1074.8604,1039.7227)"><path
                   id="path510"
                   style="fill:#1d1d1b;fill-opacity:1;fill-rule:evenodd;stroke:none"
                   d="M 0,0 C -80.128,14.402 -25.578,79.379 9.565,49.179 L 9.767,49.058 C -6.204,92.566 74.103,120.226 59.216,40.69 52.795,5.785 52.354,-9.007 52.188,-11.786 52.188,-11.786 38.993,-7.039 0,0" /></g><g
                 id="g516"
                 transform="translate(616.9795,1364.8276)"><path
                   id="path514"
                   style="fill:#1d1d1b;fill-opacity:1;fill-rule:evenodd;stroke:none"
                   d="m 0,0 c -80.127,14.402 -25.578,79.379 9.565,49.178 l 0.202,-0.12 C -6.204,92.566 74.103,120.226 59.216,40.691 52.795,5.785 52.354,-9.007 52.188,-11.786 52.188,-11.786 38.993,-7.04 0,0" /></g><g
                 id="g520"
                 transform="translate(43.8965,988.9551)"><path
                   id="path518"
                   style="fill:#1d1d1b;fill-opacity:1;fill-rule:evenodd;stroke:none"
                   d="m 0,0 c -80.127,14.402 -25.578,79.38 9.565,49.179 l 0.202,-0.12 C -6.204,92.567 74.103,120.227 59.216,40.691 52.795,5.785 52.354,-9.007 52.188,-11.785 52.188,-11.785 38.994,-7.039 0,0" /></g><g
                 id="g524"
                 transform="translate(401.2192,884.4922)"><path
                   id="path522"
                   style="fill:#1d1d1b;fill-opacity:1;fill-rule:evenodd;stroke:none"
                   d="m 0,0 c -80.127,14.402 -25.578,79.38 9.565,49.179 l 0.202,-0.12 C -6.204,92.566 74.103,120.226 59.216,40.691 52.795,5.785 52.354,-9.007 52.188,-11.785 52.188,-11.785 38.994,-7.039 0,0" /></g><g
                 id="g528"
                 transform="translate(185.459,903.042)"><path
                   id="path526"
                   style="fill:#1d1d1b;fill-opacity:1;fill-rule:evenodd;stroke:none"
                   d="M 0,0 C -80.127,14.402 -25.579,79.379 9.565,49.179 L 9.767,49.058 C -6.204,92.566 74.103,120.226 59.216,40.69 52.795,5.785 52.354,-9.007 52.188,-11.786 52.188,-11.786 38.994,-7.04 0,0" /></g><g
                 id="g532"
                 transform="translate(344.5942,1313.084)"><path
                   id="path530"
                   style="fill:#1d1d1b;fill-opacity:1;fill-rule:evenodd;stroke:none"
                   d="M 0,0 C -80.127,14.402 -25.578,79.379 9.565,49.179 L 9.767,49.058 C -6.204,92.567 74.103,120.226 59.216,40.691 52.795,5.785 52.354,-9.007 52.188,-11.786 52.188,-11.786 38.994,-7.04 0,0" /></g><g
                 id="g536"
                 transform="translate(43.8965,703.8779)"><path
                   id="path534"
                   style="fill:#1d1d1b;fill-opacity:1;fill-rule:evenodd;stroke:none"
                   d="m 0,0 c -80.127,14.403 -25.578,79.38 9.565,49.179 l 0.202,-0.12 C -6.204,92.567 74.103,120.227 59.216,40.691 52.795,5.785 52.354,-9.007 52.188,-11.785 52.188,-11.785 38.994,-7.039 0,0" /></g><g
                 id="g540"
                 transform="translate(17.5366,1364.8276)"><path
                   id="path538"
                   style="fill:#1d1d1b;fill-opacity:1;fill-rule:evenodd;stroke:none"
                   d="m 0,0 c -80.127,14.402 -25.578,79.379 9.565,49.178 l 0.202,-0.12 C -6.204,92.566 74.103,120.226 59.216,40.691 52.795,5.785 52.354,-9.007 52.188,-11.786 52.188,-11.786 38.994,-7.04 0,0" /></g><g
                 id="g544"
                 transform="translate(153.3472,361.9131)"><path
                   id="path542"
                   style="fill:#f5f5f5;fill-opacity:1;fill-rule:evenodd;stroke:none"
                   d="M 0,0 C -21.379,55.807 40.154,46.452 34.554,12.842 V 12.684 C 55.854,39.477 103.66,-0.317 48.043,-21.562 23.746,-31.074 14.358,-36.465 12.465,-37.417 12.465,-37.417 10.334,-27.27 0,0" /></g><g
                 id="g548"
                 transform="translate(436.1235,45.0898)"><path
                   id="path546"
                   style="fill:#f5f5f5;fill-opacity:1;fill-rule:evenodd;stroke:none"
                   d="M 0,0 C -54.278,11.574 -15.858,55.173 7.577,33.453 L 7.65,33.611 C -2.448,63.734 52.855,81.332 41.102,26.794 36.053,2.854 35.584,-7.134 35.503,-9.037 35.503,-9.037 26.432,-5.708 0,0" /></g><g
                 id="g552"
                 transform="translate(525.1812,286.2686)"><path
                   id="path550"
                   style="fill:#f5f5f5;fill-opacity:1;fill-rule:evenodd;stroke:none"
                   d="m 0,0 c -46.385,21.245 -3.151,52.795 13.571,28.538 -3.15,29.33 50.336,33.77 28.872,-13 -9.46,-20.136 -12.15,-29.331 -12.465,-31.075 0,0 -7.416,5.073 -29.978,15.537" /></g><g
                 id="g556"
                 transform="translate(169.0869,239.7812)"><path
                   id="path554"
                   style="fill:#f5f5f5;fill-opacity:1;fill-rule:evenodd;stroke:none"
                   d="m 0,0 c -32.976,64.524 42.6,61.359 39.996,19.814 h 0.079 c 22.168,35.197 85.358,-6.81 20.827,-39.628 -28.243,-14.434 -38.971,-22.202 -40.865,-23.785 0,0 -4.023,12.046 -20.037,43.599" /></g><g
                 id="g560"
                 transform="translate(364.4863,158.8418)"><path
                   id="path558"
                   style="fill:#f5f5f5;fill-opacity:1;fill-rule:evenodd;stroke:none"
                   d="m 0,0 c -83.141,36.939 -6.939,93.698 23.354,51.208 h 0.162 C 17.36,103.211 112.029,112.248 74.95,28.854 58.696,-7.452 54.439,-23.465 53.647,-26.636 53.647,-26.636 40.553,-18.074 0,0" /></g><g
                 id="g564"
                 transform="translate(1052.7715,1576.0093)"><path
                   id="path562"
                   style="fill:#f5f5f5;fill-opacity:1;fill-rule:evenodd;stroke:none"
                   d="m 0,0 c -83.141,36.94 -6.939,93.698 23.354,51.208 h 0.162 C 17.36,103.211 112.028,112.248 74.95,28.854 58.696,-7.452 54.439,-23.465 53.647,-26.636 53.647,-26.636 40.553,-18.074 0,0" /></g><g
                 id="g568"
                 transform="translate(487.4902,159.1172)"><path
                   id="path566"
                   style="fill:#f5f5f5;fill-opacity:1;fill-rule:evenodd;stroke:none"
                   d="m 0,0 c -46.385,21.245 -3.15,52.795 13.572,28.538 -3.151,29.33 50.335,33.77 28.871,-13 -9.46,-20.136 -12.15,-29.331 -12.464,-31.075 0,0 -7.417,5.073 -29.979,15.537" /></g><g
                 id="g572"
                 transform="translate(59.1509,177.043)"><path
                   id="path570"
                   style="fill:#f5f5f5;fill-opacity:1;fill-rule:evenodd;stroke:none"
                   d="m 0,0 c -32.976,64.524 42.6,61.358 39.996,19.814 h 0.079 c 22.168,35.197 85.358,-6.81 20.826,-39.629 -28.242,-14.433 -38.97,-22.201 -40.864,-23.784 0,0 -4.023,12.046 -20.037,43.599" /></g><g
                 id="g576"
                 transform="translate(596.9648,72.4521)"><path
                   id="path574"
                   style="fill:#f5f5f5;fill-opacity:1;fill-rule:evenodd;stroke:none"
                   d="m 0,0 c -32.821,64.686 42.758,61.515 40.076,20.135 l 0.153,-0.158 C 62.323,55.174 125.592,13.159 61.063,-19.817 32.66,-34.245 22.086,-42.014 20.034,-43.44 20.034,-43.44 16.092,-31.391 0,0" /></g><g
                 id="g580"
                 transform="translate(692.6416,361.4346)"><path
                   id="path578"
                   style="fill:#f5f5f5;fill-opacity:1;fill-rule:evenodd;stroke:none"
                   d="m 0,0 c -32.822,64.686 42.758,61.515 40.076,20.135 l 0.153,-0.158 C 62.323,55.173 125.592,13.159 61.063,-19.817 32.66,-34.245 22.086,-42.014 20.034,-43.44 20.034,-43.44 16.092,-31.392 0,0" /></g><g
                 id="g584"
                 transform="translate(236.9771,30.7139)"><path
                   id="path582"
                   style="fill:#f5f5f5;fill-opacity:1;fill-rule:evenodd;stroke:none"
                   d="m 0,0 c -83.141,36.939 -6.939,93.698 23.354,51.209 h 0.162 C 17.36,103.211 112.029,112.248 74.95,28.854 58.696,-7.452 54.439,-23.465 53.647,-26.636 53.647,-26.636 40.553,-18.074 0,0" /></g><g
                 id="g588"
                 transform="translate(699.6133,207.4053)"><path
                   id="path586"
                   style="fill:#f5f5f5;fill-opacity:1;fill-rule:evenodd;stroke:none"
                   d="m 0,0 c -35.1,53.746 31.796,58.344 33.452,21.403 h 0.081 C 49.859,54.38 109.267,23.464 55.619,-11.732 32.111,-27.111 23.354,-35.197 21.698,-36.465 21.698,-36.465 17.199,-26.318 0,0" /></g><g
                 id="g592"
                 transform="translate(905.0918,361.9131)"><path
                   id="path590"
                   style="fill:#f5f5f5;fill-opacity:1;fill-rule:evenodd;stroke:none"
                   d="M 0,0 C -21.38,55.807 40.154,46.452 34.554,12.842 V 12.684 C 55.854,39.477 103.66,-0.317 48.043,-21.562 23.745,-31.074 14.357,-36.465 12.464,-37.417 12.464,-37.417 10.334,-27.27 0,0" /></g><g
                 id="g596"
                 transform="translate(920.8311,239.7812)"><path
                   id="path594"
                   style="fill:#f5f5f5;fill-opacity:1;fill-rule:evenodd;stroke:none"
                   d="m 0,0 c -32.976,64.524 42.6,61.359 39.996,19.814 h 0.079 c 22.167,35.197 85.358,-6.81 20.826,-39.628 -28.242,-14.434 -38.97,-22.202 -40.864,-23.785 0,0 -4.022,12.046 -20.037,43.599" /></g><g
                 id="g600"
                 transform="translate(443.4248,361.3398)"><path
                   id="path598"
                   style="fill:#f5f5f5;fill-opacity:1;fill-rule:evenodd;stroke:none"
                   d="m 0,0 c -32.976,64.525 42.6,61.359 39.996,19.814 h 0.079 c 22.168,35.198 85.358,-6.81 20.826,-39.628 -28.242,-14.433 -38.97,-22.202 -40.864,-23.785 0,0 -4.023,12.047 -20.037,43.599" /></g><g
                 id="g604"
                 transform="translate(810.8945,177.043)"><path
                   id="path602"
                   style="fill:#f5f5f5;fill-opacity:1;fill-rule:evenodd;stroke:none"
                   d="m 0,0 c -32.976,64.524 42.6,61.358 39.996,19.814 h 0.079 C 62.243,55.011 125.434,13.004 60.902,-19.815 32.66,-34.248 21.931,-42.016 20.038,-43.599 20.038,-43.599 16.015,-31.553 0,0" /></g><g
                 id="g608"
                 transform="translate(964.5195,83.6553)"><path
                   id="path606"
                   style="fill:#1d1d1b;fill-opacity:1;fill-rule:evenodd;stroke:none"
                   d="M 0,0 C -58.461,22.354 -7.688,64.122 14.644,35.938 8.966,71.407 73.676,80.904 50.801,22.534 40.78,-3.108 38.433,-14.348 37.83,-16.495 c 0,0 -9.375,5.45 -37.83,16.495" /></g><g
                 id="g612"
                 transform="translate(1067.0303,300.3916)"><path
                   id="path610"
                   style="fill:#1d1d1b;fill-opacity:1;fill-rule:evenodd;stroke:none"
                   d="M 0,0 C -58.461,22.354 -7.688,64.122 14.644,35.938 8.966,71.407 73.676,80.904 50.801,22.534 40.78,-3.108 38.432,-14.348 37.83,-16.494 c 0,0 -9.375,5.449 -37.83,16.494" /></g><g
                 id="g616"
                 transform="translate(577.585,167.0566)"><path
                   id="path614"
                   style="fill:#1d1d1b;fill-opacity:1;fill-rule:evenodd;stroke:none"
                   d="m 0,0 c -51.128,16.638 -9.334,54.325 11.006,31.252 l 0.083,0.01 C 4.478,61.204 59.891,72.232 42.805,21.123 35.229,-1.07 33.628,-10.753 33.334,-12.621 c 0,0 -8.35,4.233 -33.334,12.621" /></g><g
                 id="g620"
                 transform="translate(751.415,34.7012)"><path
                   id="path618"
                   style="fill:#1d1d1b;fill-opacity:1;fill-rule:evenodd;stroke:none"
                   d="m 0,0 c -64.116,40.635 6.407,78.077 25.975,39.205 l 0.072,0.042 C 27.654,82.824 107.406,78.618 65.948,14.597 47.841,-13.484 42.169,-26.215 41.28,-28.652 41.28,-28.652 31.253,-19.93 0,0" /></g><g
                 id="g624"
                 transform="translate(791.4434,267.0586)"><path
                   id="path622"
                   style="fill:#1d1d1b;fill-opacity:1;fill-rule:evenodd;stroke:none"
                   d="m 0,0 c -64.117,40.634 6.406,78.077 25.975,39.205 l 0.071,0.042 c 1.608,43.577 81.36,39.371 39.902,-24.65 C 47.84,-13.484 42.169,-26.215 41.279,-28.652 41.279,-28.652 31.252,-19.93 0,0" /></g><g
                 id="g628"
                 transform="translate(1071.9307,23.4033)"><path
                   id="path626"
                   style="fill:#1d1d1b;fill-opacity:1;fill-rule:evenodd;stroke:none"
                   d="m 0,0 c -80.127,14.402 -25.578,79.38 9.565,49.179 l 0.203,-0.12 C -6.203,92.567 74.104,120.226 59.217,40.691 52.796,5.785 52.354,-9.007 52.188,-11.785 52.188,-11.785 38.994,-7.039 0,0" /></g><g
                 id="g632"
                 transform="translate(614.0508,348.5088)"><path
                   id="path630"
                   style="fill:#1d1d1b;fill-opacity:1;fill-rule:evenodd;stroke:none"
                   d="m 0,0 c -80.127,14.402 -25.578,79.379 9.565,49.178 l 0.202,-0.12 C -6.204,92.566 74.103,120.226 59.216,40.69 52.795,5.785 52.354,-9.008 52.188,-11.786 52.188,-11.786 38.993,-7.04 0,0" /></g><g
                 id="g636"
                 transform="translate(1004.5674,362.1768)"><path
                   id="path634"
                   style="fill:#1d1d1b;fill-opacity:1;fill-rule:evenodd;stroke:none"
                   d="M 0,0 C -80.128,14.402 -25.578,79.379 9.565,49.179 L 9.767,49.058 C -6.204,92.566 74.103,120.226 59.216,40.69 52.795,5.785 52.354,-9.007 52.188,-11.786 52.188,-11.786 38.993,-7.04 0,0" /></g><g
                 id="g640"
                 transform="translate(801.498,412.9434)"><path
                   id="path638"
                   style="fill:#1d1d1b;fill-opacity:1;fill-rule:evenodd;stroke:none"
                   d="m 0,0 c -80.127,14.402 -25.578,79.38 9.565,49.179 l 0.203,-0.12 C -6.203,92.567 74.104,120.227 59.217,40.691 52.796,5.785 52.354,-9.007 52.188,-11.785 52.188,-11.785 38.994,-7.039 0,0" /></g><g
                 id="g644"
                 transform="translate(341.6655,296.7646)"><path
                   id="path642"
                   style="fill:#1d1d1b;fill-opacity:1;fill-rule:evenodd;stroke:none"
                   d="m 0,0 c -80.127,14.403 -25.578,79.38 9.565,49.179 l 0.202,-0.12 C -6.204,92.567 74.103,120.227 59.216,40.691 52.795,5.785 52.354,-9.007 52.188,-11.785 52.188,-11.785 38.994,-7.039 0,0" /></g><g
                 id="g648"
                 transform="translate(52.6831,32.1904)"><path
                   id="path646"
                   style="fill:#1d1d1b;fill-opacity:1;fill-rule:evenodd;stroke:none"
                   d="m 0,0 c -80.127,14.402 -25.578,79.379 9.565,49.178 l 0.202,-0.12 C -6.204,92.566 74.103,120.226 59.216,40.69 52.795,5.785 52.354,-9.008 52.188,-11.786 52.188,-11.786 38.994,-7.04 0,0" /></g><g
                 id="g652"
                 transform="translate(14.6079,348.5088)"><path
                   id="path650"
                   style="fill:#1d1d1b;fill-opacity:1;fill-rule:evenodd;stroke:none"
                   d="m 0,0 c -80.127,14.402 -25.578,79.379 9.565,49.178 l 0.202,-0.12 C -6.204,92.566 74.103,120.226 59.216,40.69 52.795,5.785 52.354,-9.008 52.188,-11.786 52.188,-11.786 38.994,-7.04 0,0" /></g></g></g></g></g></g></g></svg>