<?xml version="1.0" encoding="UTF-8" standalone="no"?>
<svg
   xmlns:dc="http://purl.org/dc/elements/1.1/"
   xmlns:cc="http://creativecommons.org/ns#"
   xmlns:rdf="http://www.w3.org/1999/02/22-rdf-syntax-ns#"
   xmlns:svg="http://www.w3.org/2000/svg"
   xmlns="http://www.w3.org/2000/svg"
   viewBox="0 0 1600 1600"
   height="1600"
   width="1600"
   xml:space="preserve"
   id="svg2"
   version="1.1"><metadata
     id="metadata8"><rdf:RDF><cc:Work
         rdf:about=""><dc:format>image/svg+xml</dc:format><dc:type
           rdf:resource="http://purl.org/dc/dcmitype/StillImage" /></cc:Work></rdf:RDF></metadata><defs
     id="defs6"><clipPath
       id="clipPath20"
       clipPathUnits="userSpaceOnUse"><path
         id="path18"
         d="M 0,1200 H 1200 V 0 H 0 Z" /></clipPath><clipPath
       id="clipPath76"
       clipPathUnits="userSpaceOnUse"><path
         id="path74"
         d="M 0,1200 H 1200 V 0 H 0 Z" /></clipPath><clipPath
       id="clipPath100"
       clipPathUnits="userSpaceOnUse"><path
         id="path98"
         d="M 0,1200 H 1200 V 0 H 0 Z" /></clipPath></defs><g
     transform="matrix(1.3333333,0,0,-1.3333333,0,1600)"
     id="g10"><path
       id="path12"
       style="fill:#ff0606;fill-opacity:1;fill-rule:evenodd;stroke:none"
       d="m 570.5,725.5 h -553 v 448 h 553 z" /><g
       id="g14"><g
         clip-path="url(#clipPath20)"
         id="g16"><g
           transform="translate(785.8926,913.6997)"
           id="g22"><path
             id="path24"
             style="fill:#ff0606;fill-opacity:1;fill-rule:evenodd;stroke:none"
             d="m 0,0 v 0.001 c -4.298,12.581 -8.595,25.162 -12.893,37.743 v 10e-4 c -4.615,10.968 -9.12,23.584 -12.867,37.749 -2.207,8.341 -3.907,16.3 -5.218,23.783 -10e-4,0.016 -0.003,0.03 -0.005,0.046 -0.328,4.275 -0.415,13.403 4.562,23.114 1.036,2.021 4.558,8.484 11.83,14.259 4.808,3.818 10.404,6.64 16.573,8.293 l 178.246,47.761 c 12.334,3.304 25.032,1.418 35.872,-5.33 10.83,-6.741 18.142,-17.324 20.619,-29.836 L 265.547,11.942 c 4.661,-23.544 -9.76,-46.476 -32.834,-52.841 -28.262,-7.797 -57.097,-6.601 -85.278,0.334 -0.142,0.035 -0.29,-0.005 -0.396,-0.106 -20.939,-20.097 -45.312,-35.549 -73.686,-42.928 -5.325,-1.385 -10.325,-1.877 -15.711,-1.316 -13.82,1.441 -24.07,9.554 -30.107,15.702 -1.275,1.298 -4.226,6.16 -5.766,10.323 C 15.562,-42.119 0,0 0,0 m 163.974,-23.758 c 21.069,-3.789 42.446,-3.754 63.449,2.04 13.034,3.595 21.244,16.469 18.606,29.797 L 217.2,153.72 c -1.23,6.22 -4.476,11.477 -9.387,15.263 -6.543,5.045 -15.18,6.493 -23.163,4.353 L 180.862,172.321 7.132,125.77 c -7.016,-1.881 -12.579,-6.297 -16,-12.705 -3.417,-6.4 -3.993,-13.496 -1.655,-20.363 L 37.332,-47.842 c 4.379,-12.861 17.926,-19.905 31.012,-16.501 20.823,5.416 39.155,15.877 55.356,29.443 0.263,0.219 0.176,0.643 -0.15,0.744 -9.97,3.084 -19.777,6.787 -29.14,11.181 -21.072,9.889 -42.007,24.39 -53.313,45.31 -7.61,14.08 -9.909,29.433 -7.515,45.211 1.905,12.55 8.18,23.895 17.947,32.028 16.194,13.484 37.396,15.016 55.941,7.22 0.178,-0.075 0.382,-0.021 0.499,0.134 12.164,16.024 31.291,25.299 52.056,21.718 12.526,-2.16 23.633,-8.848 31.558,-18.765 9.962,-12.466 15.646,-26.912 16.097,-42.91 0.931,-33.103 -20.594,-65.924 -43.706,-90.729 m -22.662,5.265 c 9.699,9.475 18.81,19.864 26.526,30.941 17.92,25.725 30.064,57.653 8.201,85.012 -4.886,6.113 -11.667,10.245 -19.394,11.578 -15.736,2.713 -29.378,-6.526 -36.62,-20.06 l -0.019,-0.037 -0.08,-0.146 -0.057,-0.098 -0.056,-0.098 -0.087,-0.142 -0.022,-0.036 -0.02,-0.033 -0.088,-0.138 -0.056,-0.085 -0.086,-0.126 -0.056,-0.081 -0.085,-0.121 -0.066,-0.088 -0.094,-0.125 -0.049,-0.063 -0.1,-0.128 -0.062,-0.076 -0.096,-0.116 -0.065,-0.075 -0.085,-0.096 -0.092,-0.103 -0.069,-0.075 -0.097,-0.103 -0.062,-0.064 -0.136,-0.136 -0.008,-0.007 c -1.047,-1.031 -2.295,-1.797 -3.64,-2.274 l -0.009,-0.004 c -0.143,-0.05 -0.287,-0.097 -0.431,-0.141 l -0.053,-0.017 -0.182,-0.053 -0.033,-0.008 -0.198,-0.052 -0.011,-0.003 -0.16,-0.039 -0.025,-0.006 -0.155,-0.034 -0.077,-0.016 -0.202,-0.04 -0.012,-0.002 -0.215,-0.037 -0.024,-0.004 -0.225,-0.034 h -0.007 c -1.096,-0.149 -2.222,-0.116 -3.331,0.111 l -0.032,0.006 c -0.145,0.031 -0.29,0.065 -0.435,0.102 l -0.048,0.012 -0.155,0.042 -0.103,0.03 -0.114,0.033 -0.13,0.041 -0.1,0.033 -0.141,0.047 -0.089,0.032 -0.142,0.052 -0.088,0.033 -0.173,0.069 -0.028,0.012 -0.19,0.08 -0.059,0.027 -0.17,0.077 -0.067,0.032 -0.147,0.071 -0.09,0.045 -0.145,0.076 -0.035,0.018 -0.037,0.02 -0.146,0.081 -0.098,0.056 -0.097,0.057 -0.143,0.086 -0.036,0.022 C 92.966,93.321 76.532,94.501 64.262,84.283 58.235,79.266 54.429,72.297 53.254,64.56 51.508,53.048 53.044,42.079 58.602,31.796 73.249,4.691 111.749,-10.908 141.312,-18.493" /></g><g
           transform="translate(865.6973,1079.5669)"
           id="g26"><path
             id="path28"
             style="fill:#ff0606;fill-opacity:1;fill-rule:evenodd;stroke:none"
             d="m 0,0 c -126.012,-11.765 -51.139,112.333 0,0 m 1.851,-19.812 c -23.706,-2.213 -53.207,-1.142 -73.029,13.843 -15.724,11.887 -22.842,31.805 -14.27,50.241 9.013,19.388 30.628,27.013 50.545,20.961 C -9.419,57.491 7.684,31.147 18.109,8.244 20.863,2.196 20.548,-4.228 17.216,-9.977 13.884,-15.727 8.467,-19.194 1.851,-19.812" /></g><g
           transform="translate(884.9385,1084.7227)"
           id="g30"><path
             id="path32"
             style="fill:#ff0606;fill-opacity:1;fill-rule:evenodd;stroke:none"
             d="M 0,0 C 115.013,52.817 -11.879,122.853 0,0 M -19.805,-1.916 C -22.229,23.132 -20.588,54.498 -2.39,73.946 11.835,89.145 34.364,93.349 51.865,81.065 68.506,69.385 72.301,48.577 64.627,30.419 54.954,7.532 29.94,-8.146 8.305,-18.083 c -6.04,-2.772 -12.464,-2.479 -18.225,0.835 -5.761,3.312 -9.245,8.718 -9.885,15.332" /></g><g
           transform="translate(744.875,724.8643)"
           id="g34"><path
             id="path36"
             style="fill:none;stroke:#ff0000;stroke-width:1;stroke-linecap:butt;stroke-linejoin:miter;stroke-miterlimit:10;stroke-dasharray:none;stroke-opacity:1"
             d="m 0,0 c 3.671,0.976 7.099,2.363 10.283,4.16 3.183,1.796 6.065,3.945 8.643,6.445 2.578,2.499 4.794,5.274 6.65,8.321 1.855,3.047 3.281,6.318 4.278,9.814 0.996,3.495 1.494,7.119 1.494,10.869 0,3.711 -0.498,7.286 -1.494,10.723 -0.997,3.437 -2.423,6.641 -4.278,9.609 -1.856,2.968 -4.072,5.674 -6.65,8.116 -2.578,2.44 -5.46,4.531 -8.643,6.269 C 7.099,76.063 3.671,77.411 0,78.369 c -3.672,0.957 -7.52,1.436 -11.543,1.436 -4.024,0 -7.872,-0.479 -11.543,-1.436 -3.672,-0.958 -7.09,-2.306 -10.254,-4.043 -3.164,-1.738 -6.045,-3.829 -8.642,-6.269 -2.599,-2.442 -4.815,-5.148 -6.651,-8.116 -1.836,-2.968 -3.252,-6.172 -4.248,-9.609 -0.996,-3.437 -1.494,-7.012 -1.494,-10.723 0,-5.664 1.103,-10.986 3.311,-15.966 2.206,-4.981 5.233,-9.337 9.082,-13.067 3.847,-3.73 8.378,-6.671 13.593,-8.818 5.215,-2.148 10.83,-3.223 16.846,-3.223 4.023,0 7.871,0.489 11.543,1.465 z m -23.467,5.186 c -3.418,1.854 -6.289,4.443 -8.613,7.763 -2.325,3.32 -4.072,7.245 -5.244,11.778 -1.172,4.531 -1.758,9.492 -1.758,14.882 0,5.352 0.586,10.254 1.758,14.707 1.172,4.454 2.919,8.291 5.244,11.514 2.324,3.223 5.195,5.722 8.613,7.5 3.418,1.777 7.392,2.666 11.924,2.666 4.453,0 8.388,-0.889 11.807,-2.666 3.417,-1.778 6.298,-4.277 8.642,-7.5 2.344,-3.223 4.111,-7.06 5.303,-11.514 1.191,-4.453 1.787,-9.355 1.787,-14.707 0,-5.39 -0.596,-10.351 -1.787,-14.882 C 13.017,20.194 11.25,16.269 8.906,12.949 6.562,9.629 3.681,7.04 0.264,5.186 -3.155,3.33 -7.09,2.402 -11.543,2.402 c -4.532,0 -8.506,0.928 -11.924,2.784 z" /></g><g
           transform="translate(793.8008,725.2158)"
           id="g38"><path
             id="path40"
             style="fill:none;stroke:#ff0000;stroke-width:1;stroke-linecap:butt;stroke-linejoin:miter;stroke-miterlimit:10;stroke-dasharray:none;stroke-opacity:1"
             d="m 0,0 h 36.27 c 4.14,0 7.88,0.547 11.22,1.641 3.34,1.092 6.191,2.587 8.555,4.482 2.363,1.895 4.179,4.121 5.449,6.68 1.269,2.557 1.904,5.302 1.904,8.232 0,2.578 -0.43,4.951 -1.289,7.119 -0.859,2.168 -2.08,4.063 -3.662,5.684 -1.582,1.62 -3.486,2.959 -5.713,4.014 -2.226,1.054 -4.727,1.795 -7.5,2.226 v 0.235 c 2.773,1.327 5.069,2.626 6.885,3.896 1.817,1.269 3.271,2.616 4.365,4.043 1.094,1.426 1.855,2.978 2.286,4.658 0.429,1.679 0.644,3.594 0.644,5.742 0,2.813 -0.684,5.391 -2.051,7.735 -1.367,2.343 -3.291,4.355 -5.771,6.035 -2.481,1.679 -5.449,2.978 -8.906,3.896 -3.457,0.917 -7.257,1.377 -11.397,1.377 H 0 Z m 13.066,72.539 h 10.782 c 3.905,0 7.255,-0.351 10.048,-1.055 2.793,-0.703 5.098,-1.719 6.915,-3.046 1.816,-1.329 3.153,-2.921 4.013,-4.776 0.859,-1.855 1.289,-3.917 1.289,-6.182 0,-2.109 -0.362,-4.072 -1.084,-5.888 C 44.306,49.775 43.242,48.213 41.836,46.904 40.43,45.595 38.71,44.569 36.68,43.828 34.648,43.086 32.324,42.715 29.707,42.715 H 13.066 Z m 0,-34.629 h 13.711 c 4.18,0 7.705,-0.449 10.577,-1.347 2.871,-0.9 5.194,-2.12 6.972,-3.663 1.777,-1.544 3.056,-3.369 3.838,-5.478 0.781,-2.11 1.172,-4.395 1.172,-6.856 0,-2.188 -0.44,-4.199 -1.318,-6.035 C 47.139,12.694 45.791,11.123 43.975,9.814 42.158,8.505 39.853,7.49 37.061,6.768 34.267,6.044 30.976,5.684 27.187,5.684 H 13.066 Z" /></g><g
           transform="translate(863.6445,802.9111)"
           id="g42"><path
             id="path44"
             style="fill:none;stroke:#ff0000;stroke-width:1;stroke-linecap:butt;stroke-linejoin:miter;stroke-miterlimit:10;stroke-dasharray:none;stroke-opacity:1"
             d="M 0,0 V -5.039 H 54.551 L 0,-75.762 v -1.933 h 73.77 v 5.039 H 17.578 L 73.77,0 Z" /></g><g
           transform="translate(999.6401,724.8643)"
           id="g46"><path
             id="path48"
             style="fill:none;stroke:#ff0000;stroke-width:1;stroke-linecap:butt;stroke-linejoin:miter;stroke-miterlimit:10;stroke-dasharray:none;stroke-opacity:1"
             d="m 0,0 c 3.672,0.976 7.1,2.363 10.283,4.16 3.184,1.796 6.065,3.945 8.643,6.445 2.578,2.499 4.795,5.274 6.65,8.321 1.856,3.047 3.281,6.318 4.278,9.814 0.996,3.495 1.494,7.119 1.494,10.869 0,3.711 -0.498,7.286 -1.494,10.723 -0.997,3.437 -2.422,6.641 -4.278,9.609 -1.855,2.968 -4.072,5.674 -6.65,8.116 -2.578,2.44 -5.459,4.531 -8.643,6.269 C 7.1,76.063 3.672,77.411 0,78.369 c -3.672,0.957 -7.52,1.436 -11.543,1.436 -4.023,0 -7.871,-0.479 -11.543,-1.436 -3.672,-0.958 -7.09,-2.306 -10.254,-4.043 -3.163,-1.738 -6.045,-3.829 -8.642,-6.269 -2.598,-2.442 -4.815,-5.148 -6.65,-8.116 -1.837,-2.968 -3.252,-6.172 -4.248,-9.609 -0.996,-3.437 -1.495,-7.012 -1.495,-10.723 0,-5.664 1.104,-10.986 3.311,-15.966 2.207,-4.981 5.234,-9.337 9.082,-13.067 3.847,-3.73 8.378,-6.671 13.593,-8.818 5.215,-2.148 10.83,-3.223 16.846,-3.223 4.023,0 7.871,0.489 11.543,1.465 z m -23.467,5.186 c -3.418,1.854 -6.289,4.443 -8.613,7.763 -2.324,3.32 -4.072,7.245 -5.244,11.778 -1.172,4.531 -1.758,9.492 -1.758,14.882 0,5.352 0.586,10.254 1.758,14.707 1.172,4.454 2.92,8.291 5.244,11.514 2.324,3.223 5.195,5.722 8.613,7.5 3.418,1.777 7.393,2.666 11.924,2.666 4.453,0 8.389,-0.889 11.807,-2.666 3.418,-1.778 6.298,-4.277 8.642,-7.5 2.344,-3.223 4.112,-7.06 5.303,-11.514 1.191,-4.453 1.787,-9.355 1.787,-14.707 0,-5.39 -0.596,-10.351 -1.787,-14.882 C 13.018,20.194 11.25,16.269 8.906,12.949 6.562,9.629 3.682,7.04 0.264,5.186 -3.154,3.33 -7.09,2.402 -11.543,2.402 c -4.531,0 -8.506,0.928 -11.924,2.784 z" /></g><g
           transform="translate(1048.5659,725.2158)"
           id="g50"><path
             id="path52"
             style="fill:none;stroke:#ff0000;stroke-width:1;stroke-linecap:butt;stroke-linejoin:miter;stroke-miterlimit:10;stroke-dasharray:none;stroke-opacity:1"
             d="M 0,0 H 5.918 V 61.348 H 6.387 L 61.523,-1.816 H 64.57 V 77.695 H 58.828 V 20.859 H 58.242 L 7.324,77.695 H 0 Z" /></g><g
           transform="translate(792.8926,303.7002)"
           id="g54"><path
             id="path56"
             style="fill:#ff0606;fill-opacity:1;fill-rule:evenodd;stroke:none"
             d="m 0,0 v 0.001 c -4.298,12.58 -8.595,25.161 -12.893,37.742 v 10e-4 c -4.615,10.969 -9.12,23.584 -12.867,37.749 -2.207,8.342 -3.907,16.301 -5.218,23.784 -10e-4,0.015 -0.003,0.03 -0.005,0.045 -0.328,4.275 -0.415,13.403 4.562,23.114 1.036,2.021 4.558,8.485 11.83,14.259 4.808,3.818 10.404,6.641 16.573,8.293 l 178.246,47.761 c 12.334,3.305 25.032,1.418 35.872,-5.33 10.83,-6.74 18.142,-17.323 20.619,-29.835 L 265.547,11.942 c 4.661,-23.545 -9.76,-46.476 -32.834,-52.841 -28.262,-7.797 -57.097,-6.601 -85.278,0.334 -0.142,0.034 -0.29,-0.005 -0.396,-0.107 C 126.1,-60.769 101.727,-76.221 73.353,-83.6 c -5.325,-1.384 -10.325,-1.877 -15.711,-1.315 -13.82,1.44 -24.07,9.554 -30.107,15.702 -1.275,1.298 -4.226,6.16 -5.766,10.322 C 15.562,-42.119 0,0 0,0 m 163.974,-23.759 c 21.069,-3.789 42.446,-3.754 63.449,2.04 13.034,3.596 21.244,16.469 18.606,29.797 L 217.2,153.72 c -1.23,6.219 -4.476,11.477 -9.387,15.262 -6.543,5.046 -15.18,6.493 -23.163,4.354 L 180.862,172.32 7.132,125.769 c -7.016,-1.88 -12.579,-6.297 -16,-12.705 -3.417,-6.399 -3.993,-13.495 -1.655,-20.363 L 37.332,-47.842 c 4.379,-12.861 17.926,-19.905 31.012,-16.502 20.823,5.416 39.155,15.877 55.356,29.444 0.263,0.218 0.176,0.642 -0.15,0.743 -9.97,3.085 -19.777,6.788 -29.14,11.181 -21.072,9.889 -42.007,24.39 -53.313,45.311 -7.61,14.08 -9.909,29.433 -7.515,45.21 1.905,12.55 8.18,23.895 17.947,32.028 16.194,13.485 37.396,15.016 55.941,7.22 0.178,-0.074 0.382,-0.02 0.499,0.134 12.164,16.024 31.291,25.299 52.056,21.718 12.526,-2.16 23.633,-8.847 31.558,-18.764 9.962,-12.467 15.646,-26.912 16.097,-42.91 0.931,-33.103 -20.594,-65.925 -43.706,-90.73 m -22.662,5.266 c 9.699,9.474 18.81,19.864 26.526,30.94 17.92,25.726 30.064,57.654 8.201,85.013 -4.886,6.112 -11.667,10.244 -19.394,11.577 -15.736,2.714 -29.378,-6.525 -36.62,-20.059 l -0.019,-0.038 -0.08,-0.145 -0.057,-0.098 -0.056,-0.098 -0.087,-0.143 -0.022,-0.036 -0.02,-0.032 -0.088,-0.139 -0.056,-0.084 -0.086,-0.126 -0.056,-0.082 -0.085,-0.12 -0.066,-0.089 -0.094,-0.125 -0.049,-0.062 -0.1,-0.128 -0.062,-0.077 -0.096,-0.116 -0.065,-0.075 -0.085,-0.096 -0.092,-0.103 -0.069,-0.075 -0.097,-0.102 -0.062,-0.064 -0.136,-0.136 -0.008,-0.008 c -1.047,-1.03 -2.295,-1.796 -3.64,-2.274 l -0.009,-0.003 c -0.143,-0.05 -0.287,-0.098 -0.431,-0.142 l -0.053,-0.016 -0.182,-0.053 -0.033,-0.008 -0.198,-0.053 -0.011,-0.003 -0.16,-0.039 -0.025,-0.006 -0.155,-0.034 -0.077,-0.016 -0.202,-0.039 -0.012,-0.002 -0.215,-0.038 -0.024,-0.004 -0.225,-0.033 -0.007,-0.001 c -1.096,-0.148 -2.222,-0.116 -3.331,0.112 l -0.032,0.006 c -0.145,0.03 -0.29,0.064 -0.435,0.101 l -0.048,0.013 -0.155,0.042 -0.103,0.029 -0.114,0.033 -0.13,0.041 -0.1,0.033 -0.141,0.047 -0.089,0.033 -0.142,0.051 -0.088,0.034 -0.173,0.069 -0.028,0.011 -0.19,0.081 -0.059,0.026 -0.17,0.077 -0.067,0.032 -0.147,0.072 -0.09,0.045 -0.145,0.075 -0.035,0.018 -0.037,0.021 -0.146,0.08 -0.098,0.057 -0.097,0.056 -0.143,0.086 -0.036,0.022 C 92.966,93.32 76.532,94.501 64.262,84.282 58.235,79.265 54.429,72.297 53.254,64.56 51.508,53.047 53.044,42.078 58.602,31.795 73.249,4.69 111.749,-10.908 141.312,-18.493" /></g><g
           transform="translate(872.6973,469.5664)"
           id="g58"><path
             id="path60"
             style="fill:#ff0606;fill-opacity:1;fill-rule:evenodd;stroke:none"
             d="m 0,0 c -126.012,-11.765 -51.139,112.334 0,0 m 1.851,-19.812 c -23.706,-2.212 -53.207,-1.141 -73.029,13.843 -15.724,11.888 -22.842,31.806 -14.27,50.241 9.013,19.388 30.628,27.013 50.545,20.962 C -9.419,57.491 7.684,31.147 18.109,8.244 20.863,2.196 20.548,-4.228 17.216,-9.977 13.884,-15.727 8.467,-19.193 1.851,-19.812" /></g><g
           transform="translate(891.9385,474.7227)"
           id="g62"><path
             id="path64"
             style="fill:#ff0606;fill-opacity:1;fill-rule:evenodd;stroke:none"
             d="M 0,0 C 115.013,52.817 -11.879,122.853 0,0 M -19.805,-1.915 C -22.229,23.132 -20.588,54.498 -2.39,73.946 11.835,89.145 34.364,93.349 51.865,81.065 68.506,69.385 72.301,48.577 64.627,30.419 54.954,7.532 29.94,-8.146 8.305,-18.083 c -6.04,-2.772 -12.464,-2.479 -18.225,0.835 -5.761,3.312 -9.245,8.719 -9.885,15.333" /></g></g></g><text
       id="text68"
       style="font-variant:normal;font-weight:normal;font-stretch:normal;font-size:120px;font-family:'Malayalam MN';-inkscape-font-specification:MalayalamMN;writing-mode:lr-tb;fill:#020202;fill-opacity:1;fill-rule:nonzero;stroke:none"
       transform="matrix(1,0,0,-1,690.4102,115.2158)"><tspan
         id="tspan66"
         y="0"
         x="0 99.839996 179.16 254.75999 354.60001">OBZON</tspan></text>
<g
       id="g70"><g
         clip-path="url(#clipPath76)"
         id="g72"><g
           transform="translate(192.1914,918.0718)"
           id="g78"><path
             id="path80"
             style="fill:#ffffff;fill-opacity:1;fill-rule:evenodd;stroke:none"
             d="m 0,0 v 0 c -3.828,11.207 -7.656,22.412 -11.483,33.618 v 10e-4 c -4.111,9.77 -8.124,21.006 -11.462,33.624 -1.965,7.429 -3.48,14.518 -4.646,21.183 -0.003,0.014 -0.005,0.027 -0.006,0.04 -0.291,3.808 -0.37,11.938 4.064,20.588 0.923,1.8 4.059,7.557 10.537,12.701 4.282,3.401 9.267,5.914 14.761,7.387 l 158.764,42.54 c 10.987,2.944 22.297,1.263 31.952,-4.747 9.645,-6.004 16.16,-15.43 18.365,-26.574 L 236.523,10.637 c 4.152,-20.971 -8.692,-41.396 -29.246,-47.066 -25.172,-6.945 -50.855,-5.88 -75.957,0.297 -0.126,0.031 -0.258,-0.004 -0.352,-0.094 -18.651,-17.9 -40.36,-31.664 -65.633,-38.236 -4.742,-1.233 -9.196,-1.672 -13.993,-1.172 -12.309,1.283 -21.439,8.509 -26.817,13.986 -1.135,1.156 -3.764,5.486 -5.136,9.194 C 13.861,-37.516 0,0 0,0 m 146.052,-21.162 c 18.766,-3.375 37.806,-3.343 56.513,1.817 11.611,3.203 18.923,14.669 16.574,26.54 l -25.678,129.724 c -1.096,5.539 -3.987,10.222 -8.361,13.594 -5.829,4.494 -13.522,5.783 -20.631,3.878 L 161.095,153.487 6.352,112.023 c -6.249,-1.675 -11.204,-5.609 -14.251,-11.316 -3.043,-5.7 -3.557,-12.02 -1.475,-18.138 L 33.252,-42.613 c 3.9,-11.455 15.966,-17.729 27.622,-14.698 18.547,4.824 34.875,14.142 49.306,26.225 0.234,0.195 0.157,0.573 -0.134,0.663 -8.88,2.747 -17.615,6.045 -25.955,9.959 -18.769,8.808 -37.416,21.724 -47.487,40.358 -6.777,12.541 -8.825,26.216 -6.692,40.269 1.696,11.178 7.285,21.283 15.985,28.527 14.424,12.011 33.309,13.375 49.827,6.431 0.158,-0.066 0.34,-0.018 0.444,0.119 10.834,14.273 27.871,22.534 46.367,19.344 11.156,-1.923 21.049,-7.879 28.108,-16.713 8.873,-11.103 13.937,-23.97 14.338,-38.22 0.83,-29.484 -18.343,-58.719 -38.929,-80.813 m -20.185,4.69 c 8.639,8.439 16.754,17.693 23.626,27.559 15.962,22.913 26.778,51.352 7.305,75.721 -4.352,5.444 -10.391,9.125 -17.275,10.312 -14.015,2.417 -26.166,-5.813 -32.616,-17.868 l -0.017,-0.032 -0.072,-0.13 -0.051,-0.088 -0.05,-0.087 -0.077,-0.127 -0.019,-0.032 -0.019,-0.029 -0.078,-0.123 -0.05,-0.075 -0.076,-0.112 -0.05,-0.073 -0.077,-0.108 -0.057,-0.078 -0.084,-0.112 -0.044,-0.056 -0.089,-0.113 -0.055,-0.068 -0.086,-0.103 -0.058,-0.068 -0.075,-0.085 -0.082,-0.092 -0.062,-0.067 -0.086,-0.091 -0.055,-0.057 -0.121,-0.121 -0.007,-0.007 c -0.934,-0.918 -2.045,-1.6 -3.243,-2.025 L 102.06,75.09 c -0.127,-0.045 -0.256,-0.088 -0.385,-0.127 l -0.048,-0.014 -0.161,-0.047 -0.029,-0.007 -0.177,-0.047 -0.01,-0.003 -0.142,-0.034 -0.022,-0.005 -0.138,-0.031 -0.069,-0.015 -0.18,-0.035 -0.011,-0.002 -0.191,-0.033 -0.022,-0.003 -0.2,-0.03 -0.006,-10e-4 c -0.977,-0.132 -1.979,-0.103 -2.967,0.1 l -0.029,0.005 c -0.128,0.027 -0.258,0.057 -0.387,0.091 l -0.043,0.011 -0.137,0.037 -0.093,0.026 -0.1,0.03 -0.117,0.036 -0.089,0.029 -0.125,0.042 -0.08,0.029 -0.126,0.046 -0.079,0.03 -0.154,0.061 -0.025,0.011 -0.169,0.071 -0.052,0.024 -0.152,0.069 -0.06,0.029 -0.131,0.063 -0.08,0.04 -0.129,0.067 -0.031,0.017 -0.033,0.017 -0.13,0.072 -0.087,0.05 -0.087,0.051 -0.127,0.077 -0.032,0.019 C 82.805,83.121 68.167,84.172 57.238,75.071 51.87,70.602 48.479,64.395 47.434,57.504 45.878,47.25 47.246,37.479 52.197,28.32 65.243,4.178 99.535,-9.716 125.867,-16.472" /></g><g
           transform="translate(263.2739,1065.8096)"
           id="g82"><path
             id="path84"
             style="fill:#ffffff;fill-opacity:1;fill-rule:evenodd;stroke:none"
             d="m 0,0 c -112.24,-10.479 -45.549,100.056 0,0 m 1.647,-17.646 c -21.114,-1.971 -47.391,-1.018 -65.045,12.33 -14.007,10.588 -20.346,28.328 -12.711,44.75 8.028,17.268 27.28,24.06 45.02,18.67 C -8.39,51.208 6.843,27.743 16.13,7.343 18.583,1.956 18.302,-3.766 15.333,-8.887 12.366,-14.008 7.541,-17.096 1.647,-17.646" /></g><g
           transform="translate(280.4116,1070.4019)"
           id="g86"><path
             id="path88"
             style="fill:#ffffff;fill-opacity:1;fill-rule:evenodd;stroke:none"
             d="m 0,0 c 102.442,47.045 -10.581,109.425 0,0 m -17.64,-1.706 c -2.158,22.31 -0.698,50.248 15.512,67.57 12.669,13.537 32.736,17.282 48.324,6.341 C 61.019,61.801 64.399,43.268 57.563,27.095 48.948,6.709 26.668,-7.256 7.397,-16.106 c -5.379,-2.47 -11.102,-2.208 -16.233,0.743 -5.131,2.951 -8.234,7.766 -8.804,13.657" /></g></g></g><text
       id="text92"
       style="font-variant:normal;font-weight:normal;font-stretch:normal;font-size:106.88420105px;font-family:'Malayalam MN';-inkscape-font-specification:MalayalamMN;writing-mode:lr-tb;fill:#ffffff;fill-opacity:1;fill-rule:nonzero;stroke:none"
       transform="matrix(1,0,0,-1,100.9102,750.188)"><tspan
         id="tspan90"
         y="0"
         x="0 88.927658 159.57811 226.91516 315.8428">OBZON</tspan></text>
<g
       id="g94"><g
         clip-path="url(#clipPath100)"
         id="g96"><path
           id="path102"
           style="fill:#ff0606;fill-opacity:1;fill-rule:evenodd;stroke:none"
           d="M 571,76 H 18 v 448 h 553 z" /><g
           transform="translate(192.6914,268.5713)"
           id="g104"><path
             id="path106"
             style="fill:#ffffff;fill-opacity:1;fill-rule:evenodd;stroke:none"
             d="m 0,0 v 0.001 c -3.828,11.206 -7.656,22.412 -11.483,33.617 v 10e-4 c -4.111,9.771 -8.124,21.007 -11.462,33.624 -1.965,7.429 -3.48,14.519 -4.646,21.184 -0.003,0.013 -0.005,0.026 -0.006,0.04 -0.291,3.807 -0.37,11.938 4.064,20.588 0.923,1.8 4.059,7.556 10.537,12.701 4.282,3.4 9.267,5.914 14.761,7.387 l 158.764,42.54 c 10.987,2.943 22.297,1.263 31.952,-4.747 9.645,-6.004 16.16,-15.43 18.365,-26.575 L 236.523,10.638 c 4.152,-20.972 -8.692,-41.397 -29.246,-47.067 -25.172,-6.944 -50.855,-5.879 -75.957,0.298 -0.126,0.03 -0.258,-0.005 -0.352,-0.095 -18.651,-17.9 -40.36,-31.664 -65.633,-38.236 -4.742,-1.233 -9.196,-1.672 -13.993,-1.172 -12.309,1.283 -21.439,8.51 -26.817,13.987 -1.135,1.156 -3.764,5.486 -5.136,9.194 C 13.861,-37.515 0,0 0,0 m 146.052,-21.161 c 18.766,-3.375 37.806,-3.344 56.513,1.816 11.611,3.203 18.923,14.67 16.574,26.541 l -25.678,129.723 c -1.096,5.54 -3.987,10.223 -8.361,13.595 -5.829,4.494 -13.522,5.783 -20.631,3.878 L 161.095,153.487 6.352,112.023 C 0.103,110.349 -4.852,106.415 -7.899,100.707 -10.942,95.007 -11.456,88.688 -9.374,82.57 L 33.252,-42.612 c 3.9,-11.455 15.966,-17.73 27.622,-14.699 18.547,4.825 34.875,14.142 49.306,26.225 0.234,0.196 0.157,0.573 -0.134,0.663 -8.88,2.747 -17.615,6.045 -25.955,9.959 -18.769,8.808 -37.416,21.724 -47.487,40.359 -6.777,12.541 -8.825,26.215 -6.692,40.268 1.696,11.179 7.285,21.284 15.985,28.527 14.424,12.011 33.309,13.375 49.827,6.432 0.158,-0.067 0.34,-0.018 0.444,0.119 10.834,14.273 27.871,22.533 46.367,19.344 11.156,-1.924 21.049,-7.88 28.108,-16.713 8.873,-11.104 13.937,-23.971 14.338,-38.221 0.83,-29.484 -18.343,-58.718 -38.929,-80.812 m -20.185,4.69 c 8.639,8.439 16.754,17.693 23.626,27.558 15.962,22.914 26.778,51.352 7.305,75.722 -4.352,5.444 -10.391,9.125 -17.275,10.311 -14.015,2.417 -26.166,-5.812 -32.616,-17.867 l -0.017,-0.032 -0.072,-0.131 -0.051,-0.087 -0.05,-0.087 -0.077,-0.127 -0.019,-0.032 -0.019,-0.029 -0.078,-0.124 -0.05,-0.075 -0.076,-0.112 -0.05,-0.073 -0.077,-0.107 -0.057,-0.079 -0.084,-0.111 -0.044,-0.057 -0.089,-0.113 -0.055,-0.067 -0.086,-0.104 -0.058,-0.067 -0.075,-0.085 -0.082,-0.092 -0.062,-0.067 -0.086,-0.091 -0.055,-0.058 -0.121,-0.121 -0.007,-0.007 c -0.934,-0.917 -2.045,-1.599 -3.243,-2.025 l -0.007,-0.002 c -0.127,-0.045 -0.256,-0.088 -0.385,-0.127 l -0.048,-0.015 -0.161,-0.047 -0.029,-0.007 -0.177,-0.046 -0.01,-0.003 -0.142,-0.034 -0.022,-0.006 -0.138,-0.031 -0.069,-0.014 -0.18,-0.035 -0.011,-0.002 -0.191,-0.034 -0.022,-0.003 -0.2,-0.03 h -0.006 c -0.977,-0.133 -1.979,-0.103 -2.967,0.099 l -0.029,0.006 c -0.128,0.027 -0.258,0.056 -0.387,0.09 l -0.043,0.011 -0.137,0.037 -0.093,0.027 -0.1,0.03 -0.117,0.035 -0.089,0.029 -0.125,0.043 -0.08,0.029 -0.126,0.046 -0.079,0.03 -0.154,0.06 -0.025,0.011 -0.169,0.072 -0.052,0.024 -0.152,0.068 -0.06,0.029 -0.131,0.063 -0.08,0.04 -0.129,0.068 -0.031,0.016 -0.033,0.018 -0.13,0.072 -0.087,0.05 -0.087,0.051 -0.127,0.077 -0.032,0.018 C 82.805,83.121 68.167,84.173 57.238,75.071 51.87,70.603 48.479,64.396 47.434,57.504 45.878,47.25 47.246,37.48 52.197,28.32 65.243,4.179 99.535,-9.715 125.867,-16.471" /></g><g
           transform="translate(263.7739,416.3096)"
           id="g108"><path
             id="path110"
             style="fill:#ffffff;fill-opacity:1;fill-rule:evenodd;stroke:none"
             d="m 0,0 c -112.24,-10.479 -45.549,100.056 0,0 m 1.647,-17.646 c -21.114,-1.971 -47.391,-1.017 -65.045,12.33 -14.007,10.588 -20.346,28.329 -12.711,44.75 8.028,17.268 27.28,24.059 45.02,18.67 C -8.39,51.208 6.843,27.743 16.13,7.343 18.583,1.956 18.302,-3.766 15.333,-8.887 12.366,-14.008 7.541,-17.097 1.647,-17.646" /></g><g
           transform="translate(280.9116,420.9023)"
           id="g112"><path
             id="path114"
             style="fill:#ffffff;fill-opacity:1;fill-rule:evenodd;stroke:none"
             d="m 0,0 c 102.442,47.044 -10.581,109.425 0,0 m -17.64,-1.706 c -2.158,22.31 -0.698,50.247 15.512,67.569 C 10.541,79.4 30.608,83.146 46.196,72.204 61.019,61.801 64.399,43.268 57.563,27.094 48.948,6.709 26.668,-7.256 7.397,-16.106 c -5.379,-2.47 -11.102,-2.208 -16.233,0.743 -5.131,2.95 -8.234,7.765 -8.804,13.657" /></g></g></g><text
       id="text118"
       style="font-variant:normal;font-weight:normal;font-stretch:normal;font-size:106.88420105px;font-family:'Malayalam MN';-inkscape-font-specification:MalayalamMN;writing-mode:lr-tb;fill:#020202;fill-opacity:1;fill-rule:nonzero;stroke:none"
       transform="matrix(1,0,0,-1,101.4102,100.688)"><tspan
         id="tspan116"
         y="0"
         x="0 88.927658 159.57811 226.91516 315.8428">OBZON</tspan></text>
<text
       id="text122"
       style="font-variant:normal;font-weight:normal;font-stretch:normal;font-size:18px;font-family:'Malayalam MN';-inkscape-font-specification:MalayalamMN;writing-mode:lr-tb;fill:#000000;fill-opacity:1;fill-rule:nonzero;stroke:none"
       transform="matrix(1,0,0,-1,693.3574,70.5811)"><tspan
         id="tspan120"
         y="0"
         x="0 23.724001 47.034 68.003998 90.900002 114.318 137.448 154.944 178.668 199.638 215.62199 239.004 261.89999 279.14401 295.12799 317.71799 341.44199 361.51199 383.25601 404.92801 428.65201">obsequios del corazon</tspan></text>
</g></svg>