<?xml version="1.0" encoding="UTF-8" standalone="no"?>
<svg
   xmlns:dc="http://purl.org/dc/elements/1.1/"
   xmlns:cc="http://creativecommons.org/ns#"
   xmlns:rdf="http://www.w3.org/1999/02/22-rdf-syntax-ns#"
   xmlns:svg="http://www.w3.org/2000/svg"
   xmlns="http://www.w3.org/2000/svg"
   viewBox="0 0 1600 1600"
   height="1600"
   width="1600"
   xml:space="preserve"
   id="svg2"
   version="1.1"><metadata
     id="metadata8"><rdf:RDF><cc:Work
         rdf:about=""><dc:format>image/svg+xml</dc:format><dc:type
           rdf:resource="http://purl.org/dc/dcmitype/StillImage" /></cc:Work></rdf:RDF></metadata><defs
     id="defs6"><clipPath
       id="clipPath18"
       clipPathUnits="userSpaceOnUse"><path
         id="path16"
         d="M 0,1200 H 1200 V 0 H 0 Z" /></clipPath><clipPath
       id="clipPath46"
       clipPathUnits="userSpaceOnUse"><path
         id="path44"
         d="M 0,1200 H 1200 V 0 H 0 Z" /></clipPath></defs><g
     transform="matrix(1.3333333,0,0,-1.3333333,0,1600)"
     id="g10"><g
       id="g12"><g
         clip-path="url(#clipPath18)"
         id="g14"><g
           transform="translate(402.3955,583.8252)"
           id="g20"><path
             id="path22"
             style="fill:#e6332f;fill-opacity:1;fill-rule:evenodd;stroke:none"
             d="m 0,0 v 0.002 c -7.36,21.145 -14.583,42.29 -21.866,63.435 v 0.001 c -7.696,18.435 -15.269,39.639 -21.567,63.446 -3.709,14.019 -6.567,27.396 -8.768,39.973 -0.005,0.026 -0.008,0.05 -0.01,0.076 -0.55,7.185 -0.698,22.526 7.668,38.848 1.741,3.398 7.659,14.26 19.882,23.967 8.08,6.416 17.488,11.16 27.855,13.938 l 299.58,80.272 c 20.732,5.554 42.073,2.383 60.291,-8.958 18.202,-11.33 30.494,-29.116 34.655,-50.145 L 446.172,20.072 c 7.834,-39.571 -16.402,-78.113 -55.186,-88.811 -47.5,-13.105 -95.963,-11.094 -143.328,0.56 -0.237,0.059 -0.488,-0.008 -0.664,-0.177 -35.193,-33.777 -76.158,-59.748 -123.847,-72.151 -8.948,-2.327 -17.352,-3.154 -26.404,-2.211 -23.227,2.421 -40.454,16.058 -50.602,26.391 -2.142,2.182 -7.103,10.353 -9.692,17.349 C 26.018,-70.79 -0.137,0 0,0 m 275.456,-39.93 c 35.411,-6.369 71.339,-6.309 106.64,3.428 21.907,6.044 35.705,27.68 31.272,50.08 l -48.453,244.783 c -2.068,10.453 -7.523,19.289 -15.776,25.652 -10.999,8.48 -25.516,10.912 -38.931,7.317 L 303.841,289.624 11.849,211.383 C 0.057,208.223 -9.292,200.8 -15.042,190.03 c -5.744,-10.756 -6.712,-22.682 -2.783,-34.224 L 62.607,-80.408 c 7.359,-21.615 30.128,-33.454 52.122,-27.735 34.999,9.103 65.809,26.685 93.039,49.486 0.441,0.369 0.295,1.08 -0.253,1.25 -16.757,5.184 -33.239,11.407 -48.976,18.793 -35.416,16.62 -70.602,40.992 -89.605,76.154 -12.788,23.664 -16.653,49.468 -12.629,75.985 3.201,21.093 13.747,40.162 30.164,53.83 27.217,22.664 62.851,25.238 94.02,12.136 0.3,-0.127 0.642,-0.035 0.839,0.224 20.443,26.932 52.591,42.52 87.492,36.502 21.051,-3.63 39.72,-14.869 53.038,-31.538 16.744,-20.952 26.299,-45.231 27.055,-72.119 1.566,-55.637 -34.612,-110.8 -73.457,-152.49 m -38.087,8.85 c 16.3,15.924 31.613,33.385 44.581,52.001 30.118,43.237 50.529,96.899 13.784,142.882 -8.212,10.275 -19.608,17.219 -32.596,19.458 -26.448,4.562 -49.375,-10.968 -61.546,-33.715 l -0.033,-0.061 -0.136,-0.245 -0.095,-0.165 -0.095,-0.165 -0.145,-0.239 -0.036,-0.06 -0.035,-0.056 -0.149,-0.232 -0.094,-0.142 -0.143,-0.212 -0.094,-0.137 -0.144,-0.203 -0.11,-0.149 -0.157,-0.209 -0.083,-0.106 -0.168,-0.214 -0.104,-0.129 -0.163,-0.194 -0.108,-0.127 -0.144,-0.161 -0.153,-0.173 -0.117,-0.126 -0.162,-0.173 -0.105,-0.108 -0.228,-0.228 -0.013,-0.013 c -1.762,-1.731 -3.859,-3.019 -6.119,-3.822 l -0.015,-0.005 c -0.239,-0.085 -0.482,-0.165 -0.724,-0.238 l -0.091,-0.028 -0.305,-0.089 -0.054,-0.014 -0.333,-0.087 -0.02,-0.006 -0.268,-0.065 -0.041,-0.01 -0.262,-0.057 -0.129,-0.028 -0.341,-0.066 -0.019,-0.004 -0.361,-0.062 -0.041,-0.007 -0.377,-0.056 -0.012,-0.001 c -1.843,-0.249 -3.735,-0.194 -5.598,0.188 l -0.054,0.009 c -0.244,0.052 -0.488,0.109 -0.731,0.171 l -0.082,0.021 -0.259,0.071 -0.175,0.049 -0.189,0.056 -0.221,0.069 -0.167,0.054 -0.236,0.081 -0.152,0.053 -0.237,0.088 -0.148,0.056 -0.291,0.116 -0.047,0.019 -0.319,0.134 -0.099,0.046 -0.287,0.13 -0.113,0.053 -0.246,0.12 -0.151,0.076 -0.244,0.127 -0.06,0.03 -0.06,0.034 -0.246,0.136 -0.165,0.095 -0.164,0.094 -0.24,0.146 -0.06,0.036 c -21.913,13.614 -49.534,15.598 -70.157,-1.576 -10.129,-8.433 -16.526,-20.145 -18.5,-33.148 -2.936,-19.35 -0.354,-37.785 8.987,-55.068 24.619,-45.555 89.326,-71.772 139.014,-84.52" /></g><g
           transform="translate(536.3877,862.6011)"
           id="g24"><path
             id="path26"
             style="fill:#e6332f;fill-opacity:1;fill-rule:evenodd;stroke:none"
             d="m 0,0 c -211.791,-19.773 -85.95,188.801 0,0 m 3.109,-33.298 c -39.842,-3.719 -89.425,-1.919 -122.738,23.265 -26.431,19.981 -38.392,53.456 -23.986,84.442 15.15,32.585 51.477,45.4 84.952,35.23 C -15.832,96.626 12.913,52.35 30.437,13.855 35.064,3.691 34.535,-7.106 28.934,-16.769 23.334,-26.432 14.229,-32.26 3.109,-33.298" /></g><g
           transform="translate(568.7266,871.2661)"
           id="g28"><path
             id="path30"
             style="fill:#e6332f;fill-opacity:1;fill-rule:evenodd;stroke:none"
             d="m 0,0 c 193.304,88.771 -19.966,206.481 0,0 m -33.286,-3.219 c -4.073,42.098 -1.317,94.815 29.27,127.502 23.906,25.544 61.773,32.61 91.186,11.965 27.969,-19.632 34.347,-54.603 21.448,-85.122 C 92.361,12.66 50.321,-13.691 13.957,-30.392 c -10.15,-4.66 -20.948,-4.166 -30.63,1.403 -9.682,5.568 -15.539,14.654 -16.613,25.77" /></g></g></g><text
       id="text34"
       style="font-variant:normal;font-weight:normal;font-stretch:normal;font-size:201.68600464px;font-family:'Malayalam MN';-inkscape-font-specification:MalayalamMN;writing-mode:lr-tb;fill:#1e1e1e;fill-opacity:1;fill-rule:nonzero;stroke:none"
       transform="matrix(1,0,0,-1,230.0132,267.0381)"><tspan
         id="tspan32"
         y="0"
         x="0 167.80275 301.11719 428.17938 595.98212">OBZON</tspan></text>
<text
       id="text38"
       style="font-variant:normal;font-weight:normal;font-stretch:normal;font-size:30.25289917px;font-family:'Malayalam MN';-inkscape-font-specification:MalayalamMN;writing-mode:lr-tb;fill:#1d1d1d;fill-opacity:1;fill-rule:nonzero;stroke:none"
       transform="matrix(1,0,0,-1,220.4766,192.0186)"><tspan
         id="tspan36"
         y="0"
         x="0 39.873322 79.050827 114.29546 152.77715 192.13617 231.01114 260.41696 300.29028 335.53491 362.39948 401.698 440.17969 469.16199 496.02655 533.99396 573.86725 607.59924 644.14478 680.56921 720.44257">obsequios del corazon</tspan></text>
<g
       id="g40"><g
         clip-path="url(#clipPath46)"
         id="g42"><g
           transform="translate(1177.0195,600)"
           id="g48"><path
             id="path50"
             style="fill:none;stroke:#1d1d1d;stroke-width:5;stroke-linecap:butt;stroke-linejoin:miter;stroke-miterlimit:10;stroke-dasharray:none;stroke-opacity:1"
             d="m 0,0 c 0,-318.679 -258.341,-577.02 -577.02,-577.02 -318.679,0 -577.019,258.341 -577.019,577.02 0,318.679 258.34,577.02 577.019,577.02 C -258.341,577.02 0,318.679 0,0 Z" /></g></g></g></g></svg>